MeshVersionFormatted 1
Dimension 3
Vertices
658
-0.5 2.9487179499999998 -0.051282050000000003 1
-0.5 2.9487179499999998 -0.025641029999999999 1
-0.5 2.9487179499999998 0 1
-0.5 2.9487179499999998 0.025641029999999999 1
-0.5 2.9487179499999998 0.051282050000000003 1
-0.5 2.9743589699999999 -0.051282050000000003 1
-0.5 2.9743589699999999 -0.025641029999999999 1
-0.5 2.9743589699999999 0 1
-0.5 2.9743589699999999 0.025641029999999999 1
-0.5 2.9743589699999999 0.051282050000000003 1
-0.5 3 -0.051282050000000003 1
-0.5 3 -0.025641029999999999 1
-0.5 3 0 1
-0.5 3 0.025641029999999999 1
-0.5 3 0.051282050000000003 1
-0.5 3.0256410300000001 -0.051282050000000003 1
-0.5 3.0256410300000001 -0.025641029999999999 1
-0.5 3.0256410300000001 0 1
-0.5 3.0256410300000001 0.025641029999999999 1
-0.5 3.0256410300000001 0.051282050000000003 1
-0.5 3.0512820500000002 -0.051282050000000003 1
-0.5 3.0512820500000002 -0.025641029999999999 1
-0.5 3.0512820500000002 0 1
-0.5 3.0512820500000002 0.025641029999999999 1
-0.5 3.0512820500000002 0.051282050000000003 1
-0.47435896999999999 2.9487179499999998 -0.051282050000000003 1
-0.47435896999999999 2.9487179499999998 -0.025641029999999999 1
-0.47435896999999999 2.9487179499999998 0 1
-0.47435896999999999 2.9487179499999998 0.025641029999999999 1
-0.47435896999999999 2.9487179499999998 0.051282050000000003 1
-0.47435896999999999 2.9743589699999999 -0.051282050000000003 1
-0.47435896999999999 2.9743589699999999 0.051282050000000003 1
-0.47435896999999999 3 -0.051282050000000003 1
-0.47435896999999999 3 0.051282050000000003 1
-0.47435896999999999 3.0256410300000001 -0.051282050000000003 1
-0.47435896999999999 3.0256410300000001 0.051282050000000003 1
-0.47435896999999999 3.0512820500000002 -0.051282050000000003 1
-0.47435896999999999 3.0512820500000002 -0.025641029999999999 1
-0.47435896999999999 3.0512820500000002 0 1
-0.47435896999999999 3.0512820500000002 0.025641029999999999 1
-0.47435896999999999 3.0512820500000002 0.051282050000000003 1
-0.44871794999999998 2.9487179499999998 -0.051282050000000003 1
-0.44871794999999998 2.9487179499999998 -0.025641029999999999 1
-0.44871794999999998 2.9487179499999998 0 1
-0.44871794999999998 2.9487179499999998 0.025641029999999999 1
-0.44871794999999998 2.9487179499999998 0.051282050000000003 1
-0.44871794999999998 2.9743589699999999 -0.051282050000000003 1
-0.44871794999999998 2.9743589699999999 0.051282050000000003 1
-0.44871794999999998 3 -0.051282050000000003 1
-0.44871794999999998 3 0.051282050000000003 1
-0.44871794999999998 3.0256410300000001 -0.051282050000000003 1
-0.44871794999999998 3.0256410300000001 0.051282050000000003 1
-0.44871794999999998 3.0512820500000002 -0.051282050000000003 1
-0.44871794999999998 3.0512820500000002 -0.025641029999999999 1
-0.44871794999999998 3.0512820500000002 0 1
-0.44871794999999998 3.0512820500000002 0.025641029999999999 1
-0.44871794999999998 3.0512820500000002 0.051282050000000003 1
-0.42307692000000002 2.9487179499999998 -0.051282050000000003 1
-0.42307692000000002 2.9487179499999998 -0.025641029999999999 1
-0.42307692000000002 2.9487179499999998 0 1
-0.42307692000000002 2.9487179499999998 0.025641029999999999 1
-0.42307692000000002 2.9487179499999998 0.051282050000000003 1
-0.42307692000000002 2.9743589699999999 -0.051282050000000003 1
-0.42307692000000002 2.9743589699999999 0.051282050000000003 1
-0.42307692000000002 3 -0.051282050000000003 1
-0.42307692000000002 3 0.051282050000000003 1
-0.42307692000000002 3.0256410300000001 -0.051282050000000003 1
-0.42307692000000002 3.0256410300000001 0.051282050000000003 1
-0.42307692000000002 3.0512820500000002 -0.051282050000000003 1
-0.42307692000000002 3.0512820500000002 -0.025641029999999999 1
-0.42307692000000002 3.0512820500000002 0 1
-0.42307692000000002 3.0512820500000002 0.025641029999999999 1
-0.42307692000000002 3.0512820500000002 0.051282050000000003 1
-0.39743590000000001 2.9487179499999998 -0.051282050000000003 1
-0.39743590000000001 2.9487179499999998 -0.025641029999999999 1
-0.39743590000000001 2.9487179499999998 0 1
-0.39743590000000001 2.9487179499999998 0.025641029999999999 1
-0.39743590000000001 2.9487179499999998 0.051282050000000003 1
-0.39743590000000001 2.9743589699999999 -0.051282050000000003 1
-0.39743590000000001 2.9743589699999999 0.051282050000000003 1
-0.39743590000000001 3 -0.051282050000000003 1
-0.39743590000000001 3 0.051282050000000003 1
-0.39743590000000001 3.0256410300000001 -0.051282050000000003 1
-0.39743590000000001 3.0256410300000001 0.051282050000000003 1
-0.39743590000000001 3.0512820500000002 -0.051282050000000003 1
-0.39743590000000001 3.0512820500000002 -0.025641029999999999 1
-0.39743590000000001 3.0512820500000002 0 1
-0.39743590000000001 3.0512820500000002 0.025641029999999999 1
-0.39743590000000001 3.0512820500000002 0.051282050000000003 1
-0.37179487 2.9487179499999998 -0.051282050000000003 1
-0.37179487 2.9487179499999998 -0.025641029999999999 1
-0.37179487 2.9487179499999998 0 1
-0.37179487 2.9487179499999998 0.025641029999999999 1
-0.37179487 2.9487179499999998 0.051282050000000003 1
-0.37179487 2.9743589699999999 -0.051282050000000003 1
-0.37179487 2.9743589699999999 0.051282050000000003 1
-0.37179487 3 -0.051282050000000003 1
-0.37179487 3 0.051282050000000003 1
-0.37179487 3.0256410300000001 -0.051282050000000003 1
-0.37179487 3.0256410300000001 0.051282050000000003 1
-0.37179487 3.0512820500000002 -0.051282050000000003 1
-0.37179487 3.0512820500000002 -0.025641029999999999 1
-0.37179487 3.0512820500000002 0 1
-0.37179487 3.0512820500000002 0.025641029999999999 1
-0.37179487 3.0512820500000002 0.051282050000000003 1
-0.34615384999999999 2.9487179499999998 -0.051282050000000003 1
-0.34615384999999999 2.9487179499999998 -0.025641029999999999 1
-0.34615384999999999 2.9487179499999998 0 1
-0.34615384999999999 2.9487179499999998 0.025641029999999999 1
-0.34615384999999999 2.9487179499999998 0.051282050000000003 1
-0.34615384999999999 2.9743589699999999 -0.051282050000000003 1
-0.34615384999999999 2.9743589699999999 0.051282050000000003 1
-0.34615384999999999 3 -0.051282050000000003 1
-0.34615384999999999 3 0.051282050000000003 1
-0.34615384999999999 3.0256410300000001 -0.051282050000000003 1
-0.34615384999999999 3.0256410300000001 0.051282050000000003 1
-0.34615384999999999 3.0512820500000002 -0.051282050000000003 1
-0.34615384999999999 3.0512820500000002 -0.025641029999999999 1
-0.34615384999999999 3.0512820500000002 0 1
-0.34615384999999999 3.0512820500000002 0.025641029999999999 1
-0.34615384999999999 3.0512820500000002 0.051282050000000003 1
-0.32051281999999998 2.9487179499999998 -0.051282050000000003 1
-0.32051281999999998 2.9487179499999998 -0.025641029999999999 1
-0.32051281999999998 2.9487179499999998 0 1
-0.32051281999999998 2.9487179499999998 0.025641029999999999 1
-0.32051281999999998 2.9487179499999998 0.051282050000000003 1
-0.32051281999999998 2.9743589699999999 -0.051282050000000003 1
-0.32051281999999998 2.9743589699999999 0.051282050000000003 1
-0.32051281999999998 3 -0.051282050000000003 1
-0.32051281999999998 3 0.051282050000000003 1
-0.32051281999999998 3.0256410300000001 -0.051282050000000003 1
-0.32051281999999998 3.0256410300000001 0.051282050000000003 1
-0.32051281999999998 3.0512820500000002 -0.051282050000000003 1
-0.32051281999999998 3.0512820500000002 -0.025641029999999999 1
-0.32051281999999998 3.0512820500000002 0 1
-0.32051281999999998 3.0512820500000002 0.025641029999999999 1
-0.32051281999999998 3.0512820500000002 0.051282050000000003 1
-0.29487179000000002 2.9487179499999998 -0.051282050000000003 1
-0.29487179000000002 2.9487179499999998 -0.025641029999999999 1
-0.29487179000000002 2.9487179499999998 0 1
-0.29487179000000002 2.9487179499999998 0.025641029999999999 1
-0.29487179000000002 2.9487179499999998 0.051282050000000003 1
-0.29487179000000002 2.9743589699999999 -0.051282050000000003 1
-0.29487179000000002 2.9743589699999999 0.051282050000000003 1
-0.29487179000000002 3 -0.051282050000000003 1
-0.29487179000000002 3 0.051282050000000003 1
-0.29487179000000002 3.0256410300000001 -0.051282050000000003 1
-0.29487179000000002 3.0256410300000001 0.051282050000000003 1
-0.29487179000000002 3.0512820500000002 -0.051282050000000003 1
-0.29487179000000002 3.0512820500000002 -0.025641029999999999 1
-0.29487179000000002 3.0512820500000002 0 1
-0.29487179000000002 3.0512820500000002 0.025641029999999999 1
-0.29487179000000002 3.0512820500000002 0.051282050000000003 1
-0.26923077000000001 2.9487179499999998 -0.051282050000000003 1
-0.26923077000000001 2.9487179499999998 -0.025641029999999999 1
-0.26923077000000001 2.9487179499999998 0 1
-0.26923077000000001 2.9487179499999998 0.025641029999999999 1
-0.26923077000000001 2.9487179499999998 0.051282050000000003 1
-0.26923077000000001 2.9743589699999999 -0.051282050000000003 1
-0.26923077000000001 2.9743589699999999 0.051282050000000003 1
-0.26923077000000001 3 -0.051282050000000003 1
-0.26923077000000001 3 0.051282050000000003 1
-0.26923077000000001 3.0256410300000001 -0.051282050000000003 1
-0.26923077000000001 3.0256410300000001 0.051282050000000003 1
-0.26923077000000001 3.0512820500000002 -0.051282050000000003 1
-0.26923077000000001 3.0512820500000002 -0.025641029999999999 1
-0.26923077000000001 3.0512820500000002 0 1
-0.26923077000000001 3.0512820500000002 0.025641029999999999 1
-0.26923077000000001 3.0512820500000002 0.051282050000000003 1
-0.24358974 2.9487179499999998 -0.051282050000000003 1
-0.24358974 2.9487179499999998 -0.025641029999999999 1
-0.24358974 2.9487179499999998 0 1
-0.24358974 2.9487179499999998 0.025641029999999999 1
-0.24358974 2.9487179499999998 0.051282050000000003 1
-0.24358974 2.9743589699999999 -0.051282050000000003 1
-0.24358974 2.9743589699999999 0.051282050000000003 1
-0.24358974 3 -0.051282050000000003 1
-0.24358974 3 0.051282050000000003 1
-0.24358974 3.0256410300000001 -0.051282050000000003 1
-0.24358974 3.0256410300000001 0.051282050000000003 1
-0.24358974 3.0512820500000002 -0.051282050000000003 1
-0.24358974 3.0512820500000002 -0.025641029999999999 1
-0.24358974 3.0512820500000002 0 1
-0.24358974 3.0512820500000002 0.025641029999999999 1
-0.24358974 3.0512820500000002 0.051282050000000003 1
-0.21794872000000001 2.9487179499999998 -0.051282050000000003 1
-0.21794872000000001 2.9487179499999998 -0.025641029999999999 1
-0.21794872000000001 2.9487179499999998 0 1
-0.21794872000000001 2.9487179499999998 0.025641029999999999 1
-0.21794872000000001 2.9487179499999998 0.051282050000000003 1
-0.21794872000000001 2.9743589699999999 -0.051282050000000003 1
-0.21794872000000001 2.9743589699999999 0.051282050000000003 1
-0.21794872000000001 3 -0.051282050000000003 1
-0.21794872000000001 3 0.051282050000000003 1
-0.21794872000000001 3.0256410300000001 -0.051282050000000003 1
-0.21794872000000001 3.0256410300000001 0.051282050000000003 1
-0.21794872000000001 3.0512820500000002 -0.051282050000000003 1
-0.21794872000000001 3.0512820500000002 -0.025641029999999999 1
-0.21794872000000001 3.0512820500000002 0 1
-0.21794872000000001 3.0512820500000002 0.025641029999999999 1
-0.21794872000000001 3.0512820500000002 0.051282050000000003 1
-0.19230769 2.9487179499999998 -0.051282050000000003 1
-0.19230769 2.9487179499999998 -0.025641029999999999 1
-0.19230769 2.9487179499999998 0 1
-0.19230769 2.9487179499999998 0.025641029999999999 1
-0.19230769 2.9487179499999998 0.051282050000000003 1
-0.19230769 2.9743589699999999 -0.051282050000000003 1
-0.19230769 2.9743589699999999 0.051282050000000003 1
-0.19230769 3 -0.051282050000000003 1
-0.19230769 3 0.051282050000000003 1
-0.19230769 3.0256410300000001 -0.051282050000000003 1
-0.19230769 3.0256410300000001 0.051282050000000003 1
-0.19230769 3.0512820500000002 -0.051282050000000003 1
-0.19230769 3.0512820500000002 -0.025641029999999999 1
-0.19230769 3.0512820500000002 0 1
-0.19230769 3.0512820500000002 0.025641029999999999 1
-0.19230769 3.0512820500000002 0.051282050000000003 1
-0.16666666999999999 2.9487179499999998 -0.051282050000000003 1
-0.16666666999999999 2.9487179499999998 -0.025641029999999999 1
-0.16666666999999999 2.9487179499999998 0 1
-0.16666666999999999 2.9487179499999998 0.025641029999999999 1
-0.16666666999999999 2.9487179499999998 0.051282050000000003 1
-0.16666666999999999 2.9743589699999999 -0.051282050000000003 1
-0.16666666999999999 2.9743589699999999 0.051282050000000003 1
-0.16666666999999999 3 -0.051282050000000003 1
-0.16666666999999999 3 0.051282050000000003 1
-0.16666666999999999 3.0256410300000001 -0.051282050000000003 1
-0.16666666999999999 3.0256410300000001 0.051282050000000003 1
-0.16666666999999999 3.0512820500000002 -0.051282050000000003 1
-0.16666666999999999 3.0512820500000002 -0.025641029999999999 1
-0.16666666999999999 3.0512820500000002 0 1
-0.16666666999999999 3.0512820500000002 0.025641029999999999 1
-0.16666666999999999 3.0512820500000002 0.051282050000000003 1
-0.14102564000000001 2.9487179499999998 -0.051282050000000003 1
-0.14102564000000001 2.9487179499999998 -0.025641029999999999 1
-0.14102564000000001 2.9487179499999998 0 1
-0.14102564000000001 2.9487179499999998 0.025641029999999999 1
-0.14102564000000001 2.9487179499999998 0.051282050000000003 1
-0.14102564000000001 2.9743589699999999 -0.051282050000000003 1
-0.14102564000000001 2.9743589699999999 0.051282050000000003 1
-0.14102564000000001 3 -0.051282050000000003 1
-0.14102564000000001 3 0.051282050000000003 1
-0.14102564000000001 3.0256410300000001 -0.051282050000000003 1
-0.14102564000000001 3.0256410300000001 0.051282050000000003 1
-0.14102564000000001 3.0512820500000002 -0.051282050000000003 1
-0.14102564000000001 3.0512820500000002 -0.025641029999999999 1
-0.14102564000000001 3.0512820500000002 0 1
-0.14102564000000001 3.0512820500000002 0.025641029999999999 1
-0.14102564000000001 3.0512820500000002 0.051282050000000003 1
-0.11538461999999999 2.9487179499999998 -0.051282050000000003 1
-0.11538461999999999 2.9487179499999998 -0.025641029999999999 1
-0.11538461999999999 2.9487179499999998 0 1
-0.11538461999999999 2.9487179499999998 0.025641029999999999 1
-0.11538461999999999 2.9487179499999998 0.051282050000000003 1
-0.11538461999999999 2.9743589699999999 -0.051282050000000003 1
-0.11538461999999999 2.9743589699999999 0.051282050000000003 1
-0.11538461999999999 3 -0.051282050000000003 1
-0.11538461999999999 3 0.051282050000000003 1
-0.11538461999999999 3.0256410300000001 -0.051282050000000003 1
-0.11538461999999999 3.0256410300000001 0.051282050000000003 1
-0.11538461999999999 3.0512820500000002 -0.051282050000000003 1
-0.11538461999999999 3.0512820500000002 -0.025641029999999999 1
-0.11538461999999999 3.0512820500000002 0 1
-0.11538461999999999 3.0512820500000002 0.025641029999999999 1
-0.11538461999999999 3.0512820500000002 0.051282050000000003 1
-0.089743589999999998 2.9487179499999998 -0.051282050000000003 1
-0.089743589999999998 2.9487179499999998 -0.025641029999999999 1
-0.089743589999999998 2.9487179499999998 0 1
-0.089743589999999998 2.9487179499999998 0.025641029999999999 1
-0.089743589999999998 2.9487179499999998 0.051282050000000003 1
-0.089743589999999998 2.9743589699999999 -0.051282050000000003 1
-0.089743589999999998 2.9743589699999999 0.051282050000000003 1
-0.089743589999999998 3 -0.051282050000000003 1
-0.089743589999999998 3 0.051282050000000003 1
-0.089743589999999998 3.0256410300000001 -0.051282050000000003 1
-0.089743589999999998 3.0256410300000001 0.051282050000000003 1
-0.089743589999999998 3.0512820500000002 -0.051282050000000003 1
-0.089743589999999998 3.0512820500000002 -0.025641029999999999 1
-0.089743589999999998 3.0512820500000002 0 1
-0.089743589999999998 3.0512820500000002 0.025641029999999999 1
-0.089743589999999998 3.0512820500000002 0.051282050000000003 1
-0.064102560000000003 2.9487179499999998 -0.051282050000000003 1
-0.064102560000000003 2.9487179499999998 -0.025641029999999999 1
-0.064102560000000003 2.9487179499999998 0 1
-0.064102560000000003 2.9487179499999998 0.025641029999999999 1
-0.064102560000000003 2.9487179499999998 0.051282050000000003 1
-0.064102560000000003 2.9743589699999999 -0.051282050000000003 1
-0.064102560000000003 2.9743589699999999 0.051282050000000003 1
-0.064102560000000003 3 -0.051282050000000003 1
-0.064102560000000003 3 0.051282050000000003 1
-0.064102560000000003 3.0256410300000001 -0.051282050000000003 1
-0.064102560000000003 3.0256410300000001 0.051282050000000003 1
-0.064102560000000003 3.0512820500000002 -0.051282050000000003 1
-0.064102560000000003 3.0512820500000002 -0.025641029999999999 1
-0.064102560000000003 3.0512820500000002 0 1
-0.064102560000000003 3.0512820500000002 0.025641029999999999 1
-0.064102560000000003 3.0512820500000002 0.051282050000000003 1
-0.038461540000000002 2.9487179499999998 -0.051282050000000003 1
-0.038461540000000002 2.9487179499999998 -0.025641029999999999 1
-0.038461540000000002 2.9487179499999998 0 1
-0.038461540000000002 2.9487179499999998 0.025641029999999999 1
-0.038461540000000002 2.9487179499999998 0.051282050000000003 1
-0.038461540000000002 2.9743589699999999 -0.051282050000000003 1
-0.038461540000000002 2.9743589699999999 0.051282050000000003 1
-0.038461540000000002 3 -0.051282050000000003 1
-0.038461540000000002 3 0.051282050000000003 1
-0.038461540000000002 3.0256410300000001 -0.051282050000000003 1
-0.038461540000000002 3.0256410300000001 0.051282050000000003 1
-0.038461540000000002 3.0512820500000002 -0.051282050000000003 1
-0.038461540000000002 3.0512820500000002 -0.025641029999999999 1
-0.038461540000000002 3.0512820500000002 0 1
-0.038461540000000002 3.0512820500000002 0.025641029999999999 1
-0.038461540000000002 3.0512820500000002 0.051282050000000003 1
-0.01282051 2.9487179499999998 -0.051282050000000003 1
-0.01282051 2.9487179499999998 -0.025641029999999999 1
-0.01282051 2.9487179499999998 0 1
-0.01282051 2.9487179499999998 0.025641029999999999 1
-0.01282051 2.9487179499999998 0.051282050000000003 1
-0.01282051 2.9743589699999999 -0.051282050000000003 1
-0.01282051 2.9743589699999999 0.051282050000000003 1
-0.01282051 3 -0.051282050000000003 1
-0.01282051 3 0.051282050000000003 1
-0.01282051 3.0256410300000001 -0.051282050000000003 1
-0.01282051 3.0256410300000001 0.051282050000000003 1
-0.01282051 3.0512820500000002 -0.051282050000000003 1
-0.01282051 3.0512820500000002 -0.025641029999999999 1
-0.01282051 3.0512820500000002 0 1
-0.01282051 3.0512820500000002 0.025641029999999999 1
-0.01282051 3.0512820500000002 0.051282050000000003 1
0.01282051 2.9487179499999998 -0.051282050000000003 1
0.01282051 2.9487179499999998 -0.025641029999999999 1
0.01282051 2.9487179499999998 0 1
0.01282051 2.9487179499999998 0.025641029999999999 1
0.01282051 2.9487179499999998 0.051282050000000003 1
0.01282051 2.9743589699999999 -0.051282050000000003 1
0.01282051 2.9743589699999999 0.051282050000000003 1
0.01282051 3 -0.051282050000000003 1
0.01282051 3 0.051282050000000003 1
0.01282051 3.0256410300000001 -0.051282050000000003 1
0.01282051 3.0256410300000001 0.051282050000000003 1
0.01282051 3.0512820500000002 -0.051282050000000003 1
0.01282051 3.0512820500000002 -0.025641029999999999 1
0.01282051 3.0512820500000002 0 1
0.01282051 3.0512820500000002 0.025641029999999999 1
0.01282051 3.0512820500000002 0.051282050000000003 1
0.038461540000000002 2.9487179499999998 -0.051282050000000003 1
0.038461540000000002 2.9487179499999998 -0.025641029999999999 1
0.038461540000000002 2.9487179499999998 0 1
0.038461540000000002 2.9487179499999998 0.025641029999999999 1
0.038461540000000002 2.9487179499999998 0.051282050000000003 1
0.038461540000000002 2.9743589699999999 -0.051282050000000003 1
0.038461540000000002 2.9743589699999999 0.051282050000000003 1
0.038461540000000002 3 -0.051282050000000003 1
0.038461540000000002 3 0.051282050000000003 1
0.038461540000000002 3.0256410300000001 -0.051282050000000003 1
0.038461540000000002 3.0256410300000001 0.051282050000000003 1
0.038461540000000002 3.0512820500000002 -0.051282050000000003 1
0.038461540000000002 3.0512820500000002 -0.025641029999999999 1
0.038461540000000002 3.0512820500000002 0 1
0.038461540000000002 3.0512820500000002 0.025641029999999999 1
0.038461540000000002 3.0512820500000002 0.051282050000000003 1
0.064102560000000003 2.9487179499999998 -0.051282050000000003 1
0.064102560000000003 2.9487179499999998 -0.025641029999999999 1
0.064102560000000003 2.9487179499999998 0 1
0.064102560000000003 2.9487179499999998 0.025641029999999999 1
0.064102560000000003 2.9487179499999998 0.051282050000000003 1
0.064102560000000003 2.9743589699999999 -0.051282050000000003 1
0.064102560000000003 2.9743589699999999 0.051282050000000003 1
0.064102560000000003 3 -0.051282050000000003 1
0.064102560000000003 3 0.051282050000000003 1
0.064102560000000003 3.0256410300000001 -0.051282050000000003 1
0.064102560000000003 3.0256410300000001 0.051282050000000003 1
0.064102560000000003 3.0512820500000002 -0.051282050000000003 1
0.064102560000000003 3.0512820500000002 -0.025641029999999999 1
0.064102560000000003 3.0512820500000002 0 1
0.064102560000000003 3.0512820500000002 0.025641029999999999 1
0.064102560000000003 3.0512820500000002 0.051282050000000003 1
0.089743589999999998 2.9487179499999998 -0.051282050000000003 1
0.089743589999999998 2.9487179499999998 -0.025641029999999999 1
0.089743589999999998 2.9487179499999998 0 1
0.089743589999999998 2.9487179499999998 0.025641029999999999 1
0.089743589999999998 2.9487179499999998 0.051282050000000003 1
0.089743589999999998 2.9743589699999999 -0.051282050000000003 1
0.089743589999999998 2.9743589699999999 0.051282050000000003 1
0.089743589999999998 3 -0.051282050000000003 1
0.089743589999999998 3 0.051282050000000003 1
0.089743589999999998 3.0256410300000001 -0.051282050000000003 1
0.089743589999999998 3.0256410300000001 0.051282050000000003 1
0.089743589999999998 3.0512820500000002 -0.051282050000000003 1
0.089743589999999998 3.0512820500000002 -0.025641029999999999 1
0.089743589999999998 3.0512820500000002 0 1
0.089743589999999998 3.0512820500000002 0.025641029999999999 1
0.089743589999999998 3.0512820500000002 0.051282050000000003 1
0.11538461999999999 2.9487179499999998 -0.051282050000000003 1
0.11538461999999999 2.9487179499999998 -0.025641029999999999 1
0.11538461999999999 2.9487179499999998 0 1
0.11538461999999999 2.9487179499999998 0.025641029999999999 1
0.11538461999999999 2.9487179499999998 0.051282050000000003 1
0.11538461999999999 2.9743589699999999 -0.051282050000000003 1
0.11538461999999999 2.9743589699999999 0.051282050000000003 1
0.11538461999999999 3 -0.051282050000000003 1
0.11538461999999999 3 0.051282050000000003 1
0.11538461999999999 3.0256410300000001 -0.051282050000000003 1
0.11538461999999999 3.0256410300000001 0.051282050000000003 1
0.11538461999999999 3.0512820500000002 -0.051282050000000003 1
0.11538461999999999 3.0512820500000002 -0.025641029999999999 1
0.11538461999999999 3.0512820500000002 0 1
0.11538461999999999 3.0512820500000002 0.025641029999999999 1
0.11538461999999999 3.0512820500000002 0.051282050000000003 1
0.14102564000000001 2.9487179499999998 -0.051282050000000003 1
0.14102564000000001 2.9487179499999998 -0.025641029999999999 1
0.14102564000000001 2.9487179499999998 0 1
0.14102564000000001 2.9487179499999998 0.025641029999999999 1
0.14102564000000001 2.9487179499999998 0.051282050000000003 1
0.14102564000000001 2.9743589699999999 -0.051282050000000003 1
0.14102564000000001 2.9743589699999999 0.051282050000000003 1
0.14102564000000001 3 -0.051282050000000003 1
0.14102564000000001 3 0.051282050000000003 1
0.14102564000000001 3.0256410300000001 -0.051282050000000003 1
0.14102564000000001 3.0256410300000001 0.051282050000000003 1
0.14102564000000001 3.0512820500000002 -0.051282050000000003 1
0.14102564000000001 3.0512820500000002 -0.025641029999999999 1
0.14102564000000001 3.0512820500000002 0 1
0.14102564000000001 3.0512820500000002 0.025641029999999999 1
0.14102564000000001 3.0512820500000002 0.051282050000000003 1
0.16666666999999999 2.9487179499999998 -0.051282050000000003 1
0.16666666999999999 2.9487179499999998 -0.025641029999999999 1
0.16666666999999999 2.9487179499999998 0 1
0.16666666999999999 2.9487179499999998 0.025641029999999999 1
0.16666666999999999 2.9487179499999998 0.051282050000000003 1
0.16666666999999999 2.9743589699999999 -0.051282050000000003 1
0.16666666999999999 2.9743589699999999 0.051282050000000003 1
0.16666666999999999 3 -0.051282050000000003 1
0.16666666999999999 3 0.051282050000000003 1
0.16666666999999999 3.0256410300000001 -0.051282050000000003 1
0.16666666999999999 3.0256410300000001 0.051282050000000003 1
0.16666666999999999 3.0512820500000002 -0.051282050000000003 1
0.16666666999999999 3.0512820500000002 -0.025641029999999999 1
0.16666666999999999 3.0512820500000002 0 1
0.16666666999999999 3.0512820500000002 0.025641029999999999 1
0.16666666999999999 3.0512820500000002 0.051282050000000003 1
0.19230769 2.9487179499999998 -0.051282050000000003 1
0.19230769 2.9487179499999998 -0.025641029999999999 1
0.19230769 2.9487179499999998 0 1
0.19230769 2.9487179499999998 0.025641029999999999 1
0.19230769 2.9487179499999998 0.051282050000000003 1
0.19230769 2.9743589699999999 -0.051282050000000003 1
0.19230769 2.9743589699999999 0.051282050000000003 1
0.19230769 3 -0.051282050000000003 1
0.19230769 3 0.051282050000000003 1
0.19230769 3.0256410300000001 -0.051282050000000003 1
0.19230769 3.0256410300000001 0.051282050000000003 1
0.19230769 3.0512820500000002 -0.051282050000000003 1
0.19230769 3.0512820500000002 -0.025641029999999999 1
0.19230769 3.0512820500000002 0 1
0.19230769 3.0512820500000002 0.025641029999999999 1
0.19230769 3.0512820500000002 0.051282050000000003 1
0.21794872000000001 2.9487179499999998 -0.051282050000000003 1
0.21794872000000001 2.9487179499999998 -0.025641029999999999 1
0.21794872000000001 2.9487179499999998 0 1
0.21794872000000001 2.9487179499999998 0.025641029999999999 1
0.21794872000000001 2.9487179499999998 0.051282050000000003 1
0.21794872000000001 2.9743589699999999 -0.051282050000000003 1
0.21794872000000001 2.9743589699999999 0.051282050000000003 1
0.21794872000000001 3 -0.051282050000000003 1
0.21794872000000001 3 0.051282050000000003 1
0.21794872000000001 3.0256410300000001 -0.051282050000000003 1
0.21794872000000001 3.0256410300000001 0.051282050000000003 1
0.21794872000000001 3.0512820500000002 -0.051282050000000003 1
0.21794872000000001 3.0512820500000002 -0.025641029999999999 1
0.21794872000000001 3.0512820500000002 0 1
0.21794872000000001 3.0512820500000002 0.025641029999999999 1
0.21794872000000001 3.0512820500000002 0.051282050000000003 1
0.24358974 2.9487179499999998 -0.051282050000000003 1
0.24358974 2.9487179499999998 -0.025641029999999999 1
0.24358974 2.9487179499999998 0 1
0.24358974 2.9487179499999998 0.025641029999999999 1
0.24358974 2.9487179499999998 0.051282050000000003 1
0.24358974 2.9743589699999999 -0.051282050000000003 1
0.24358974 2.9743589699999999 0.051282050000000003 1
0.24358974 3 -0.051282050000000003 1
0.24358974 3 0.051282050000000003 1
0.24358974 3.0256410300000001 -0.051282050000000003 1
0.24358974 3.0256410300000001 0.051282050000000003 1
0.24358974 3.0512820500000002 -0.051282050000000003 1
0.24358974 3.0512820500000002 -0.025641029999999999 1
0.24358974 3.0512820500000002 0 1
0.24358974 3.0512820500000002 0.025641029999999999 1
0.24358974 3.0512820500000002 0.051282050000000003 1
0.26923077000000001 2.9487179499999998 -0.051282050000000003 1
0.26923077000000001 2.9487179499999998 -0.025641029999999999 1
0.26923077000000001 2.9487179499999998 0 1
0.26923077000000001 2.9487179499999998 0.025641029999999999 1
0.26923077000000001 2.9487179499999998 0.051282050000000003 1
0.26923077000000001 2.9743589699999999 -0.051282050000000003 1
0.26923077000000001 2.9743589699999999 0.051282050000000003 1
0.26923077000000001 3 -0.051282050000000003 1
0.26923077000000001 3 0.051282050000000003 1
0.26923077000000001 3.0256410300000001 -0.051282050000000003 1
0.26923077000000001 3.0256410300000001 0.051282050000000003 1
0.26923077000000001 3.0512820500000002 -0.051282050000000003 1
0.26923077000000001 3.0512820500000002 -0.025641029999999999 1
0.26923077000000001 3.0512820500000002 0 1
0.26923077000000001 3.0512820500000002 0.025641029999999999 1
0.26923077000000001 3.0512820500000002 0.051282050000000003 1
0.29487179000000002 2.9487179499999998 -0.051282050000000003 1
0.29487179000000002 2.9487179499999998 -0.025641029999999999 1
0.29487179000000002 2.9487179499999998 0 1
0.29487179000000002 2.9487179499999998 0.025641029999999999 1
0.29487179000000002 2.9487179499999998 0.051282050000000003 1
0.29487179000000002 2.9743589699999999 -0.051282050000000003 1
0.29487179000000002 2.9743589699999999 0.051282050000000003 1
0.29487179000000002 3 -0.051282050000000003 1
0.29487179000000002 3 0.051282050000000003 1
0.29487179000000002 3.0256410300000001 -0.051282050000000003 1
0.29487179000000002 3.0256410300000001 0.051282050000000003 1
0.29487179000000002 3.0512820500000002 -0.051282050000000003 1
0.29487179000000002 3.0512820500000002 -0.025641029999999999 1
0.29487179000000002 3.0512820500000002 0 1
0.29487179000000002 3.0512820500000002 0.025641029999999999 1
0.29487179000000002 3.0512820500000002 0.051282050000000003 1
0.32051281999999998 2.9487179499999998 -0.051282050000000003 1
0.32051281999999998 2.9487179499999998 -0.025641029999999999 1
0.32051281999999998 2.9487179499999998 0 1
0.32051281999999998 2.9487179499999998 0.025641029999999999 1
0.32051281999999998 2.9487179499999998 0.051282050000000003 1
0.32051281999999998 2.9743589699999999 -0.051282050000000003 1
0.32051281999999998 2.9743589699999999 0.051282050000000003 1
0.32051281999999998 3 -0.051282050000000003 1
0.32051281999999998 3 0.051282050000000003 1
0.32051281999999998 3.0256410300000001 -0.051282050000000003 1
0.32051281999999998 3.0256410300000001 0.051282050000000003 1
0.32051281999999998 3.0512820500000002 -0.051282050000000003 1
0.32051281999999998 3.0512820500000002 -0.025641029999999999 1
0.32051281999999998 3.0512820500000002 0 1
0.32051281999999998 3.0512820500000002 0.025641029999999999 1
0.32051281999999998 3.0512820500000002 0.051282050000000003 1
0.34615384999999999 2.9487179499999998 -0.051282050000000003 1
0.34615384999999999 2.9487179499999998 -0.025641029999999999 1
0.34615384999999999 2.9487179499999998 0 1
0.34615384999999999 2.9487179499999998 0.025641029999999999 1
0.34615384999999999 2.9487179499999998 0.051282050000000003 1
0.34615384999999999 2.9743589699999999 -0.051282050000000003 1
0.34615384999999999 2.9743589699999999 0.051282050000000003 1
0.34615384999999999 3 -0.051282050000000003 1
0.34615384999999999 3 0.051282050000000003 1
0.34615384999999999 3.0256410300000001 -0.051282050000000003 1
0.34615384999999999 3.0256410300000001 0.051282050000000003 1
0.34615384999999999 3.0512820500000002 -0.051282050000000003 1
0.34615384999999999 3.0512820500000002 -0.025641029999999999 1
0.34615384999999999 3.0512820500000002 0 1
0.34615384999999999 3.0512820500000002 0.025641029999999999 1
0.34615384999999999 3.0512820500000002 0.051282050000000003 1
0.37179487 2.9487179499999998 -0.051282050000000003 1
0.37179487 2.9487179499999998 -0.025641029999999999 1
0.37179487 2.9487179499999998 0 1
0.37179487 2.9487179499999998 0.025641029999999999 1
0.37179487 2.9487179499999998 0.051282050000000003 1
0.37179487 2.9743589699999999 -0.051282050000000003 1
0.37179487 2.9743589699999999 0.051282050000000003 1
0.37179487 3 -0.051282050000000003 1
0.37179487 3 0.051282050000000003 1
0.37179487 3.0256410300000001 -0.051282050000000003 1
0.37179487 3.0256410300000001 0.051282050000000003 1
0.37179487 3.0512820500000002 -0.051282050000000003 1
0.37179487 3.0512820500000002 -0.025641029999999999 1
0.37179487 3.0512820500000002 0 1
0.37179487 3.0512820500000002 0.025641029999999999 1
0.37179487 3.0512820500000002 0.051282050000000003 1
0.39743590000000001 2.9487179499999998 -0.051282050000000003 1
0.39743590000000001 2.9487179499999998 -0.025641029999999999 1
0.39743590000000001 2.9487179499999998 0 1
0.39743590000000001 2.9487179499999998 0.025641029999999999 1
0.39743590000000001 2.9487179499999998 0.051282050000000003 1
0.39743590000000001 2.9743589699999999 -0.051282050000000003 1
0.39743590000000001 2.9743589699999999 0.051282050000000003 1
0.39743590000000001 3 -0.051282050000000003 1
0.39743590000000001 3 0.051282050000000003 1
0.39743590000000001 3.0256410300000001 -0.051282050000000003 1
0.39743590000000001 3.0256410300000001 0.051282050000000003 1
0.39743590000000001 3.0512820500000002 -0.051282050000000003 1
0.39743590000000001 3.0512820500000002 -0.025641029999999999 1
0.39743590000000001 3.0512820500000002 0 1
0.39743590000000001 3.0512820500000002 0.025641029999999999 1
0.39743590000000001 3.0512820500000002 0.051282050000000003 1
0.42307692000000002 2.9487179499999998 -0.051282050000000003 1
0.42307692000000002 2.9487179499999998 -0.025641029999999999 1
0.42307692000000002 2.9487179499999998 0 1
0.42307692000000002 2.9487179499999998 0.025641029999999999 1
0.42307692000000002 2.9487179499999998 0.051282050000000003 1
0.42307692000000002 2.9743589699999999 -0.051282050000000003 1
0.42307692000000002 2.9743589699999999 0.051282050000000003 1
0.42307692000000002 3 -0.051282050000000003 1
0.42307692000000002 3 0.051282050000000003 1
0.42307692000000002 3.0256410300000001 -0.051282050000000003 1
0.42307692000000002 3.0256410300000001 0.051282050000000003 1
0.42307692000000002 3.0512820500000002 -0.051282050000000003 1
0.42307692000000002 3.0512820500000002 -0.025641029999999999 1
0.42307692000000002 3.0512820500000002 0 1
0.42307692000000002 3.0512820500000002 0.025641029999999999 1
0.42307692000000002 3.0512820500000002 0.051282050000000003 1
0.44871794999999998 2.9487179499999998 -0.051282050000000003 1
0.44871794999999998 2.9487179499999998 -0.025641029999999999 1
0.44871794999999998 2.9487179499999998 0 1
0.44871794999999998 2.9487179499999998 0.025641029999999999 1
0.44871794999999998 2.9487179499999998 0.051282050000000003 1
0.44871794999999998 2.9743589699999999 -0.051282050000000003 1
0.44871794999999998 2.9743589699999999 0.051282050000000003 1
0.44871794999999998 3 -0.051282050000000003 1
0.44871794999999998 3 0.051282050000000003 1
0.44871794999999998 3.0256410300000001 -0.051282050000000003 1
0.44871794999999998 3.0256410300000001 0.051282050000000003 1
0.44871794999999998 3.0512820500000002 -0.051282050000000003 1
0.44871794999999998 3.0512820500000002 -0.025641029999999999 1
0.44871794999999998 3.0512820500000002 0 1
0.44871794999999998 3.0512820500000002 0.025641029999999999 1
0.44871794999999998 3.0512820500000002 0.051282050000000003 1
0.47435896999999999 2.9487179499999998 -0.051282050000000003 1
0.47435896999999999 2.9487179499999998 -0.025641029999999999 1
0.47435896999999999 2.9487179499999998 0 1
0.47435896999999999 2.9487179499999998 0.025641029999999999 1
0.47435896999999999 2.9487179499999998 0.051282050000000003 1
0.47435896999999999 2.9743589699999999 -0.051282050000000003 1
0.47435896999999999 2.9743589699999999 0.051282050000000003 1
0.47435896999999999 3 -0.051282050000000003 1
0.47435896999999999 3 0.051282050000000003 1
0.47435896999999999 3.0256410300000001 -0.051282050000000003 1
0.47435896999999999 3.0256410300000001 0.051282050000000003 1
0.47435896999999999 3.0512820500000002 -0.051282050000000003 1
0.47435896999999999 3.0512820500000002 -0.025641029999999999 1
0.47435896999999999 3.0512820500000002 0 1
0.47435896999999999 3.0512820500000002 0.025641029999999999 1
0.47435896999999999 3.0512820500000002 0.051282050000000003 1
0.5 2.9487179499999998 -0.051282050000000003 1
0.5 2.9487179499999998 -0.025641029999999999 1
0.5 2.9487179499999998 0 1
0.5 2.9487179499999998 0.025641029999999999 1
0.5 2.9487179499999998 0.051282050000000003 1
0.5 2.9743589699999999 -0.051282050000000003 1
0.5 2.9743589699999999 -0.025641029999999999 1
0.5 2.9743589699999999 0 1
0.5 2.9743589699999999 0.025641029999999999 1
0.5 2.9743589699999999 0.051282050000000003 1
0.5 3 -0.051282050000000003 1
0.5 3 -0.025641029999999999 1
0.5 3 0 1
0.5 3 0.025641029999999999 1
0.5 3 0.051282050000000003 1
0.5 3.0256410300000001 -0.051282050000000003 1
0.5 3.0256410300000001 -0.025641029999999999 1
0.5 3.0256410300000001 0 1
0.5 3.0256410300000001 0.025641029999999999 1
0.5 3.0256410300000001 0.051282050000000003 1
0.5 3.0512820500000002 -0.051282050000000003 1
0.5 3.0512820500000002 -0.025641029999999999 1
0.5 3.0512820500000002 0 1
0.5 3.0512820500000002 0.025641029999999999 1
0.5 3.0512820500000002 0.051282050000000003 1
Triangles
1312
1 2 6 1
2 1 26 1
26 1 6 1
2 3 8 1
28 3 2 1
2 7 6 1
8 7 2 1
26 27 2 1
28 2 27 1
3 4 8 1
4 3 28 1
4 5 10 1
30 5 4 1
4 9 8 1
10 9 4 1
28 29 4 1
30 4 29 1
5 30 10 1
6 7 12 1
12 11 6 1
6 11 33 1
6 31 26 1
6 33 31 1
7 8 12 1
8 9 14 1
8 13 12 1
14 13 8 1
9 10 14 1
10 15 14 1
15 10 34 1
32 10 30 1
32 34 10 1
11 12 16 1
33 11 16 1
12 13 18 1
12 17 16 1
18 17 12 1
13 14 18 1
14 15 20 1
14 19 18 1
20 19 14 1
15 34 20 1
16 17 22 1
22 21 16 1
16 21 37 1
16 35 33 1
16 37 35 1
17 18 22 1
18 19 24 1
18 23 22 1
24 23 18 1
19 20 24 1
20 25 24 1
25 20 41 1
36 20 34 1
36 41 20 1
21 22 37 1
22 23 39 1
22 38 37 1
38 22 39 1
23 24 39 1
24 25 41 1
24 40 39 1
40 24 41 1
43 27 26 1
26 31 47 1
43 26 42 1
26 47 42 1
28 27 43 1
45 29 28 1
43 44 28 1
45 28 44 1
30 29 45 1
32 30 48 1
45 46 30 1
46 48 30 1
47 31 33 1
32 48 34 1
33 35 51 1
33 49 47 1
33 51 49 1
36 34 52 1
50 34 48 1
50 52 34 1
51 35 37 1
36 52 41 1
37 38 54 1
37 53 51 1
53 37 54 1
38 39 54 1
39 40 56 1
39 55 54 1
55 39 56 1
40 41 56 1
57 41 52 1
41 57 56 1
43 42 58 1
58 42 47 1
60 44 43 1
58 59 43 1
60 43 59 1
45 44 60 1
62 46 45 1
60 61 45 1
62 45 61 1
46 62 48 1
47 49 65 1
47 63 58 1
47 65 63 1
50 48 66 1
64 48 62 1
64 66 48 1
65 49 51 1
50 66 52 1
51 53 69 1
51 67 65 1
51 69 67 1
57 52 73 1
68 52 66 1
68 73 52 1
53 54 69 1
54 55 71 1
54 70 69 1
70 54 71 1
55 56 71 1
56 57 73 1
56 72 71 1
72 56 73 1
75 59 58 1
58 63 79 1
75 58 74 1
58 79 74 1
60 59 75 1
77 61 60 1
75 76 60 1
77 60 76 1
62 61 77 1
64 62 80 1
77 78 62 1
78 80 62 1
79 63 65 1
64 80 66 1
65 67 83 1
65 81 79 1
65 83 81 1
68 66 84 1
82 66 80 1
82 84 66 1
83 67 69 1
68 84 73 1
69 70 86 1
69 85 83 1
85 69 86 1
70 71 86 1
71 72 88 1
71 87 86 1
87 71 88 1
72 73 88 1
89 73 84 1
73 89 88 1
75 74 90 1
90 74 79 1
92 76 75 1
90 91 75 1
92 75 91 1
77 76 92 1
94 78 77 1
92 93 77 1
94 77 93 1
78 94 80 1
79 81 97 1
79 95 90 1
79 97 95 1
82 80 98 1
96 80 94 1
96 98 80 1
97 81 83 1
82 98 84 1
83 85 101 1
83 99 97 1
83 101 99 1
89 84 105 1
100 84 98 1
100 105 84 1
85 86 101 1
86 87 103 1
86 102 101 1
102 86 103 1
87 88 103 1
88 89 105 1
88 104 103 1
104 88 105 1
107 91 90 1
90 95 111 1
107 90 106 1
90 111 106 1
92 91 107 1
109 93 92 1
107 108 92 1
109 92 108 1
94 93 109 1
96 94 112 1
109 110 94 1
110 112 94 1
111 95 97 1
96 112 98 1
97 99 115 1
97 113 111 1
97 115 113 1
100 98 116 1
114 98 112 1
114 116 98 1
115 99 101 1
100 116 105 1
101 102 118 1
101 117 115 1
117 101 118 1
102 103 118 1
103 104 120 1
103 119 118 1
119 103 120 1
104 105 120 1
121 105 116 1
105 121 120 1
107 106 122 1
122 106 111 1
124 108 107 1
122 123 107 1
124 107 123 1
109 108 124 1
126 110 109 1
124 125 109 1
126 109 125 1
110 126 112 1
111 113 129 1
111 127 122 1
111 129 127 1
114 112 130 1
128 112 126 1
128 130 112 1
129 113 115 1
114 130 116 1
115 117 133 1
115 131 129 1
115 133 131 1
121 116 137 1
132 116 130 1
132 137 116 1
117 118 133 1
118 119 135 1
118 134 133 1
134 118 135 1
119 120 135 1
120 121 137 1
120 136 135 1
136 120 137 1
139 123 122 1
122 127 143 1
139 122 138 1
122 143 138 1
124 123 139 1
141 125 124 1
139 140 124 1
141 124 140 1
126 125 141 1
128 126 144 1
141 142 126 1
142 144 126 1
143 127 129 1
128 144 130 1
129 131 147 1
129 145 143 1
129 147 145 1
132 130 148 1
146 130 144 1
146 148 130 1
147 131 133 1
132 148 137 1
133 134 150 1
133 149 147 1
149 133 150 1
134 135 150 1
135 136 152 1
135 151 150 1
151 135 152 1
136 137 152 1
153 137 148 1
137 153 152 1
139 138 154 1
154 138 143 1
156 140 139 1
154 155 139 1
156 139 155 1
141 140 156 1
158 142 141 1
156 157 141 1
158 141 157 1
142 158 144 1
143 145 161 1
143 159 154 1
143 161 159 1
146 144 162 1
160 144 158 1
160 162 144 1
161 145 147 1
146 162 148 1
147 149 165 1
147 163 161 1
147 165 163 1
153 148 169 1
164 148 162 1
164 169 148 1
149 150 165 1
150 151 167 1
150 166 165 1
166 150 167 1
151 152 167 1
152 153 169 1
152 168 167 1
168 152 169 1
171 155 154 1
154 159 175 1
171 154 170 1
154 175 170 1
156 155 171 1
173 157 156 1
171 172 156 1
173 156 172 1
158 157 173 1
160 158 176 1
173 174 158 1
174 176 158 1
175 159 161 1
160 176 162 1
161 163 179 1
161 177 175 1
161 179 177 1
164 162 180 1
178 162 176 1
178 180 162 1
179 163 165 1
164 180 169 1
165 166 182 1
165 181 179 1
181 165 182 1
166 167 182 1
167 168 184 1
167 183 182 1
183 167 184 1
168 169 184 1
185 169 180 1
169 185 184 1
171 170 186 1
186 170 175 1
188 172 171 1
186 187 171 1
188 171 187 1
173 172 188 1
190 174 173 1
188 189 173 1
190 173 189 1
174 190 176 1
175 177 193 1
175 191 186 1
175 193 191 1
178 176 194 1
192 176 190 1
192 194 176 1
193 177 179 1
178 194 180 1
179 181 197 1
179 195 193 1
179 197 195 1
185 180 201 1
196 180 194 1
196 201 180 1
181 182 197 1
182 183 199 1
182 198 197 1
198 182 199 1
183 184 199 1
184 185 201 1
184 200 199 1
200 184 201 1
203 187 186 1
186 191 207 1
203 186 202 1
186 207 202 1
188 187 203 1
205 189 188 1
203 204 188 1
205 188 204 1
190 189 205 1
192 190 208 1
205 206 190 1
206 208 190 1
207 191 193 1
192 208 194 1
193 195 211 1
193 209 207 1
193 211 209 1
196 194 212 1
210 194 208 1
210 212 194 1
211 195 197 1
196 212 201 1
197 198 214 1
197 213 211 1
213 197 214 1
198 199 214 1
199 200 216 1
199 215 214 1
215 199 216 1
200 201 216 1
217 201 212 1
201 217 216 1
203 202 218 1
218 202 207 1
220 204 203 1
218 219 203 1
220 203 219 1
205 204 220 1
222 206 205 1
220 221 205 1
222 205 221 1
206 222 208 1
207 209 225 1
207 223 218 1
207 225 223 1
210 208 226 1
224 208 222 1
224 226 208 1
225 209 211 1
210 226 212 1
211 213 229 1
211 227 225 1
211 229 227 1
217 212 233 1
228 212 226 1
228 233 212 1
213 214 229 1
214 215 231 1
214 230 229 1
230 214 231 1
215 216 231 1
216 217 233 1
216 232 231 1
232 216 233 1
235 219 218 1
218 223 239 1
235 218 234 1
218 239 234 1
220 219 235 1
237 221 220 1
235 236 220 1
237 220 236 1
222 221 237 1
224 222 240 1
237 238 222 1
238 240 222 1
239 223 225 1
224 240 226 1
225 227 243 1
225 241 239 1
225 243 241 1
228 226 244 1
242 226 240 1
242 244 226 1
243 227 229 1
228 244 233 1
229 230 246 1
229 245 243 1
245 229 246 1
230 231 246 1
231 232 248 1
231 247 246 1
247 231 248 1
232 233 248 1
249 233 244 1
233 249 248 1
235 234 250 1
250 234 239 1
252 236 235 1
250 251 235 1
252 235 251 1
237 236 252 1
254 238 237 1
252 253 237 1
254 237 253 1
238 254 240 1
239 241 257 1
239 255 250 1
239 257 255 1
242 240 258 1
256 240 254 1
256 258 240 1
257 241 243 1
242 258 244 1
243 245 261 1
243 259 257 1
243 261 259 1
249 244 265 1
260 244 258 1
260 265 244 1
245 246 261 1
246 247 263 1
246 262 261 1
262 246 263 1
247 248 263 1
248 249 265 1
248 264 263 1
264 248 265 1
267 251 250 1
250 255 271 1
267 250 266 1
250 271 266 1
252 251 267 1
269 253 252 1
267 268 252 1
269 252 268 1
254 253 269 1
256 254 272 1
269 270 254 1
270 272 254 1
271 255 257 1
256 272 258 1
257 259 275 1
257 273 271 1
257 275 273 1
260 258 276 1
274 258 272 1
274 276 258 1
275 259 261 1
260 276 265 1
261 262 278 1
261 277 275 1
277 261 278 1
262 263 278 1
263 264 280 1
263 279 278 1
279 263 280 1
264 265 280 1
281 265 276 1
265 281 280 1
267 266 282 1
282 266 271 1
284 268 267 1
282 283 267 1
284 267 283 1
269 268 284 1
286 270 269 1
284 285 269 1
286 269 285 1
270 286 272 1
271 273 289 1
271 287 282 1
271 289 287 1
274 272 290 1
288 272 286 1
288 290 272 1
289 273 275 1
274 290 276 1
275 277 293 1
275 291 289 1
275 293 291 1
281 276 297 1
292 276 290 1
292 297 276 1
277 278 293 1
278 279 295 1
278 294 293 1
294 278 295 1
279 280 295 1
280 281 297 1
280 296 295 1
296 280 297 1
299 283 282 1
282 287 303 1
299 282 298 1
282 303 298 1
284 283 299 1
301 285 284 1
299 300 284 1
301 284 300 1
286 285 301 1
288 286 304 1
301 302 286 1
302 304 286 1
303 287 289 1
288 304 290 1
289 291 307 1
289 305 303 1
289 307 305 1
292 290 308 1
306 290 304 1
306 308 290 1
307 291 293 1
292 308 297 1
293 294 310 1
293 309 307 1
309 293 310 1
294 295 310 1
295 296 312 1
295 311 310 1
311 295 312 1
296 297 312 1
313 297 308 1
297 313 312 1
299 298 314 1
314 298 303 1
316 300 299 1
314 315 299 1
316 299 315 1
301 300 316 1
318 302 301 1
316 317 301 1
318 301 317 1
302 318 304 1
303 305 321 1
303 319 314 1
303 321 319 1
306 304 322 1
320 304 318 1
320 322 304 1
321 305 307 1
306 322 308 1
307 309 325 1
307 323 321 1
307 325 323 1
313 308 329 1
324 308 322 1
324 329 308 1
309 310 325 1
310 311 327 1
310 326 325 1
326 310 327 1
311 312 327 1
312 313 329 1
312 328 327 1
328 312 329 1
331 315 314 1
314 319 335 1
331 314 330 1
314 335 330 1
316 315 331 1
333 317 316 1
331 332 316 1
333 316 332 1
318 317 333 1
320 318 336 1
333 334 318 1
334 336 318 1
335 319 321 1
320 336 322 1
321 323 339 1
321 337 335 1
321 339 337 1
324 322 340 1
338 322 336 1
338 340 322 1
339 323 325 1
324 340 329 1
325 326 342 1
325 341 339 1
341 325 342 1
326 327 342 1
327 328 344 1
327 343 342 1
343 327 344 1
328 329 344 1
345 329 340 1
329 345 344 1
331 330 346 1
346 330 335 1
348 332 331 1
346 347 331 1
348 331 347 1
333 332 348 1
350 334 333 1
348 349 333 1
350 333 349 1
334 350 336 1
335 337 353 1
335 351 346 1
335 353 351 1
338 336 354 1
352 336 350 1
352 354 336 1
353 337 339 1
338 354 340 1
339 341 357 1
339 355 353 1
339 357 355 1
345 340 361 1
356 340 354 1
356 361 340 1
341 342 357 1
342 343 359 1
342 358 357 1
358 342 359 1
343 344 359 1
344 345 361 1
344 360 359 1
360 344 361 1
363 347 346 1
346 351 367 1
363 346 362 1
346 367 362 1
348 347 363 1
365 349 348 1
363 364 348 1
365 348 364 1
350 349 365 1
352 350 368 1
365 366 350 1
366 368 350 1
367 351 353 1
352 368 354 1
353 355 371 1
353 369 367 1
353 371 369 1
356 354 372 1
370 354 368 1
370 372 354 1
371 355 357 1
356 372 361 1
357 358 374 1
357 373 371 1
373 357 374 1
358 359 374 1
359 360 376 1
359 375 374 1
375 359 376 1
360 361 376 1
377 361 372 1
361 377 376 1
363 362 378 1
378 362 367 1
380 364 363 1
378 379 363 1
380 363 379 1
365 364 380 1
382 366 365 1
380 381 365 1
382 365 381 1
366 382 368 1
367 369 385 1
367 383 378 1
367 385 383 1
370 368 386 1
384 368 382 1
384 386 368 1
385 369 371 1
370 386 372 1
371 373 389 1
371 387 385 1
371 389 387 1
377 372 393 1
388 372 386 1
388 393 372 1
373 374 389 1
374 375 391 1
374 390 389 1
390 374 391 1
375 376 391 1
376 377 393 1
376 392 391 1
392 376 393 1
395 379 378 1
378 383 399 1
395 378 394 1
378 399 394 1
380 379 395 1
397 381 380 1
395 396 380 1
397 380 396 1
382 381 397 1
384 382 400 1
397 398 382 1
398 400 382 1
399 383 385 1
384 400 386 1
385 387 403 1
385 401 399 1
385 403 401 1
388 386 404 1
402 386 400 1
402 404 386 1
403 387 389 1
388 404 393 1
389 390 406 1
389 405 403 1
405 389 406 1
390 391 406 1
391 392 408 1
391 407 406 1
407 391 408 1
392 393 408 1
409 393 404 1
393 409 408 1
395 394 410 1
410 394 399 1
412 396 395 1
410 411 395 1
412 395 411 1
397 396 412 1
414 398 397 1
412 413 397 1
414 397 413 1
398 414 400 1
399 401 417 1
399 415 410 1
399 417 415 1
402 400 418 1
416 400 414 1
416 418 400 1
417 401 403 1
402 418 404 1
403 405 421 1
403 419 417 1
403 421 419 1
409 404 425 1
420 404 418 1
420 425 404 1
405 406 421 1
406 407 423 1
406 422 421 1
422 406 423 1
407 408 423 1
408 409 425 1
408 424 423 1
424 408 425 1
427 411 410 1
410 415 431 1
427 410 426 1
410 431 426 1
412 411 427 1
429 413 412 1
427 428 412 1
429 412 428 1
414 413 429 1
416 414 432 1
429 430 414 1
430 432 414 1
431 415 417 1
416 432 418 1
417 419 435 1
417 433 431 1
417 435 433 1
420 418 436 1
434 418 432 1
434 436 418 1
435 419 421 1
420 436 425 1
421 422 438 1
421 437 435 1
437 421 438 1
422 423 438 1
423 424 440 1
423 439 438 1
439 423 440 1
424 425 440 1
441 425 436 1
425 441 440 1
427 426 442 1
442 426 431 1
444 428 427 1
442 443 427 1
444 427 443 1
429 428 444 1
446 430 429 1
444 445 429 1
446 429 445 1
430 446 432 1
431 433 449 1
431 447 442 1
431 449 447 1
434 432 450 1
448 432 446 1
448 450 432 1
449 433 435 1
434 450 436 1
435 437 453 1
435 451 449 1
435 453 451 1
441 436 457 1
452 436 450 1
452 457 436 1
437 438 453 1
438 439 455 1
438 454 453 1
454 438 455 1
439 440 455 1
440 441 457 1
440 456 455 1
456 440 457 1
459 443 442 1
442 447 463 1
459 442 458 1
442 463 458 1
444 443 459 1
461 445 444 1
459 460 444 1
461 444 460 1
446 445 461 1
448 446 464 1
461 462 446 1
462 464 446 1
463 447 449 1
448 464 450 1
449 451 467 1
449 465 463 1
449 467 465 1
452 450 468 1
466 450 464 1
466 468 450 1
467 451 453 1
452 468 457 1
453 454 470 1
453 469 467 1
469 453 470 1
454 455 470 1
455 456 472 1
455 471 470 1
471 455 472 1
456 457 472 1
473 457 468 1
457 473 472 1
459 458 474 1
474 458 463 1
476 460 459 1
474 475 459 1
476 459 475 1
461 460 476 1
478 462 461 1
476 477 461 1
478 461 477 1
462 478 464 1
463 465 481 1
463 479 474 1
463 481 479 1
466 464 482 1
480 464 478 1
480 482 464 1
481 465 467 1
466 482 468 1
467 469 485 1
467 483 481 1
467 485 483 1
473 468 489 1
484 468 482 1
484 489 468 1
469 470 485 1
470 471 487 1
470 486 485 1
486 470 487 1
471 472 487 1
472 473 489 1
472 488 487 1
488 472 489 1
491 475 474 1
474 479 495 1
491 474 490 1
474 495 490 1
476 475 491 1
493 477 476 1
491 492 476 1
493 476 492 1
478 477 493 1
480 478 496 1
493 494 478 1
494 496 478 1
495 479 481 1
480 496 482 1
481 483 499 1
481 497 495 1
481 499 497 1
484 482 500 1
498 482 496 1
498 500 482 1
499 483 485 1
484 500 489 1
485 486 502 1
485 501 499 1
501 485 502 1
486 487 502 1
487 488 504 1
487 503 502 1
503 487 504 1
488 489 504 1
505 489 500 1
489 505 504 1
491 490 506 1
506 490 495 1
508 492 491 1
506 507 491 1
508 491 507 1
493 492 508 1
510 494 493 1
508 509 493 1
510 493 509 1
494 510 496 1
495 497 513 1
495 511 506 1
495 513 511 1
498 496 514 1
512 496 510 1
512 514 496 1
513 497 499 1
498 514 500 1
499 501 517 1
499 515 513 1
499 517 515 1
505 500 521 1
516 500 514 1
516 521 500 1
501 502 517 1
502 503 519 1
502 518 517 1
518 502 519 1
503 504 519 1
504 505 521 1
504 520 519 1
520 504 521 1
523 507 506 1
506 511 527 1
523 506 522 1
506 527 522 1
508 507 523 1
525 509 508 1
523 524 508 1
525 508 524 1
510 509 525 1
512 510 528 1
525 526 510 1
526 528 510 1
527 511 513 1
512 528 514 1
513 515 531 1
513 529 527 1
513 531 529 1
516 514 532 1
530 514 528 1
530 532 514 1
531 515 517 1
516 532 521 1
517 518 534 1
517 533 531 1
533 517 534 1
518 519 534 1
519 520 536 1
519 535 534 1
535 519 536 1
520 521 536 1
537 521 532 1
521 537 536 1
523 522 538 1
538 522 527 1
540 524 523 1
538 539 523 1
540 523 539 1
525 524 540 1
542 526 525 1
540 541 525 1
542 525 541 1
526 542 528 1
527 529 545 1
527 543 538 1
527 545 543 1
530 528 546 1
544 528 542 1
544 546 528 1
545 529 531 1
530 546 532 1
531 533 549 1
531 547 545 1
531 549 547 1
537 532 553 1
548 532 546 1
548 553 532 1
533 534 549 1
534 535 551 1
534 550 549 1
550 534 551 1
535 536 551 1
536 537 553 1
536 552 551 1
552 536 553 1
555 539 538 1
538 543 559 1
555 538 554 1
538 559 554 1
540 539 555 1
557 541 540 1
555 556 540 1
557 540 556 1
542 541 557 1
544 542 560 1
557 558 542 1
558 560 542 1
559 543 545 1
544 560 546 1
545 547 563 1
545 561 559 1
545 563 561 1
548 546 564 1
562 546 560 1
562 564 546 1
563 547 549 1
548 564 553 1
549 550 566 1
549 565 563 1
565 549 566 1
550 551 566 1
551 552 568 1
551 567 566 1
567 551 568 1
552 553 568 1
569 553 564 1
553 569 568 1
555 554 570 1
570 554 559 1
572 556 555 1
570 571 555 1
572 555 571 1
557 556 572 1
574 558 557 1
572 573 557 1
574 557 573 1
558 574 560 1
559 561 577 1
559 575 570 1
559 577 575 1
562 560 578 1
576 560 574 1
576 578 560 1
577 561 563 1
562 578 564 1
563 565 581 1
563 579 577 1
563 581 579 1
569 564 585 1
580 564 578 1
580 585 564 1
565 566 581 1
566 567 583 1
566 582 581 1
582 566 583 1
567 568 583 1
568 569 585 1
568 584 583 1
584 568 585 1
587 571 570 1
570 575 591 1
587 570 586 1
570 591 586 1
572 571 587 1
589 573 572 1
587 588 572 1
589 572 588 1
574 573 589 1
576 574 592 1
589 590 574 1
590 592 574 1
591 575 577 1
576 592 578 1
577 579 595 1
577 593 591 1
577 595 593 1
580 578 596 1
594 578 592 1
594 596 578 1
595 579 581 1
580 596 585 1
581 582 598 1
581 597 595 1
597 581 598 1
582 583 598 1
583 584 600 1
583 599 598 1
599 583 600 1
584 585 600 1
601 585 596 1
585 601 600 1
587 586 602 1
602 586 591 1
604 588 587 1
602 603 587 1
604 587 603 1
589 588 604 1
606 590 589 1
604 605 589 1
606 589 605 1
590 606 592 1
591 593 609 1
591 607 602 1
591 609 607 1
594 592 610 1
608 592 606 1
608 610 592 1
609 593 595 1
594 610 596 1
595 597 613 1
595 611 609 1
595 613 611 1
601 596 617 1
612 596 610 1
612 617 596 1
597 598 613 1
598 599 615 1
598 614 613 1
614 598 615 1
599 600 615 1
600 601 617 1
600 616 615 1
616 600 617 1
619 603 602 1
602 607 623 1
619 602 618 1
602 623 618 1
604 603 619 1
621 605 604 1
619 620 604 1
621 604 620 1
606 605 621 1
608 606 624 1
621 622 606 1
622 624 606 1
623 607 609 1
608 624 610 1
609 611 627 1
609 625 623 1
609 627 625 1
612 610 628 1
626 610 624 1
626 628 610 1
627 611 613 1
612 628 617 1
613 614 630 1
613 629 627 1
629 613 630 1
614 615 630 1
615 616 632 1
615 631 630 1
631 615 632 1
616 617 632 1
633 617 628 1
617 633 632 1
619 618 634 1
634 618 623 1
636 620 619 1
634 635 619 1
636 619 635 1
621 620 636 1
638 622 621 1
636 637 621 1
638 621 637 1
622 638 624 1
623 625 644 1
623 639 634 1
623 644 639 1
626 624 648 1
643 624 638 1
643 648 624 1
644 625 627 1
626 648 628 1
627 629 654 1
627 649 644 1
627 654 649 1
633 628 658 1
653 628 648 1
653 658 628 1
629 630 654 1
630 631 656 1
630 655 654 1
655 630 656 1
631 632 656 1
632 633 658 1
632 657 656 1
657 632 658 1
640 635 634 1
634 639 640 1
640 636 635 1
642 637 636 1
640 641 636 1
636 641 642 1
642 638 637 1
642 643 638 1
644 640 639 1
646 641 640 1
644 645 640 1
640 645 646 1
646 642 641 1
648 643 642 1
646 647 642 1
642 647 648 1
650 645 644 1
644 649 650 1
650 646 645 1
652 647 646 1
650 651 646 1
646 651 652 1
652 648 647 1
652 653 648 1
654 650 649 1
656 651 650 1
654 655 650 1
650 655 656 1
656 652 651 1
658 653 652 1
656 657 652 1
652 657 658 1
Tetrahedra
1705
155 171 177 172 1
241 263 247 236 1
241 247 220 236 1
309 307 326 310 1
367 346 362 363 1
43 63 42 47 1
578 556 583 572 1
273 267 289 268 1
556 540 557 562 1
518 501 517 499 1
561 583 582 566 1
609 615 614 593 1
43 65 44 60 1
43 26 27 47 1
610 608 589 605 1
492 503 519 497 1
179 197 181 198 1
227 245 229 246 1
436 457 456 440 1
573 576 557 574 1
610 589 592 594 1
493 477 494 496 1
438 419 435 417 1
155 177 156 172 1
442 463 443 459 1
51 49 70 54 1
81 97 103 76 1
382 400 398 381 1
257 262 263 279 1
64 66 61 45 1
50 29 34 14 1
276 296 297 292 1
154 138 155 159 1
32 5 10 4 1
171 191 175 193 1
48 29 46 30 1
157 160 176 178 1
630 609 614 611 1
70 65 87 71 1
566 549 565 547 1
514 516 536 520 1
24 19 40 41 1
394 415 395 411 1
319 315 314 335 1
211 227 229 230 1
146 141 124 140 1
33 49 51 54 1
359 342 358 337 1
289 305 307 310 1
202 219 218 223 1
1 7 31 6 1
55 49 44 13 1
29 50 32 48 1
188 172 189 194 1
365 384 368 366 1
308 328 312 329 1
130 135 124 108 1
448 466 445 450 1
20 36 15 14 1
273 289 291 294 1
106 90 107 111 1
368 365 366 349 1
644 650 625 645 1
283 299 282 303 1
269 274 272 290 1
139 161 145 140 1
219 241 235 239 1
317 301 318 320 1
610 608 605 626 1
301 304 322 306 1
555 577 571 575 1
136 137 116 132 1
327 321 305 326 1
110 128 126 109 1
157 162 156 140 1
81 97 99 102 1
160 158 142 141 1
72 73 52 68 1
114 112 93 109 1
12 43 27 49 1
90 91 111 95 1
7 31 6 33 1
289 267 284 268 1
299 319 303 321 1
300 301 317 322 1
50 66 48 45 1
166 161 183 167 1
26 1 27 31 1
241 257 263 236 1
5 32 30 4 1
255 234 235 239 1
235 251 257 252 1
235 257 236 252 1
557 576 558 574 1
317 320 336 338 1
248 264 265 244 1
170 191 187 186 1
114 130 109 108 1
219 235 218 239 1
200 216 217 196 1
467 470 449 465 1
19 24 25 41 1
334 317 336 333 1
471 449 465 444 1
561 540 545 539 1
576 573 578 594 1
519 514 536 520 1
638 621 622 643 1
352 349 354 370 1
464 462 446 445 1
555 539 559 538 1
324 328 345 344 1
484 488 468 489 1
609 614 646 645 1
417 399 415 395 1
191 170 171 175 1
340 361 360 344 1
386 388 408 392 1
614 615 598 593 1
488 466 468 472 1
320 317 322 338 1
356 361 377 360 1
454 455 438 433 1
497 519 518 502 1
273 279 252 268 1
482 488 504 487 1
573 576 574 592 1
470 454 453 451 1
432 448 429 450 1
409 404 388 408 1
552 530 536 535 1
573 576 592 594 1
556 557 578 562 1
561 567 583 566 1
519 498 514 520 1
632 631 652 647 1
63 43 59 65 1
607 587 591 586 1
473 468 452 472 1
512 493 510 494 1
466 471 460 444 1
544 525 528 546 1
412 423 439 417 1
337 315 331 332 1
263 257 279 252 1
241 219 223 239 1
123 139 143 145 1
434 436 456 440 1
316 317 333 338 1
317 316 322 338 1
338 360 359 343 1
359 343 342 337 1
553 552 569 548 1
507 513 491 508 1
614 630 646 645 1
535 513 529 508 1
338 316 343 332 1
271 267 287 289 1
469 467 486 470 1
608 606 589 605 1
630 609 625 645 1
450 445 428 444 1
65 71 44 60 1
234 255 235 251 1
540 541 546 524 1
438 422 421 419 1
448 464 446 445 1
594 578 599 572 1
534 518 517 515 1
375 358 374 353 1
595 598 577 593 1
63 59 79 81 1
357 358 339 355 1
585 601 580 584 1
601 617 596 600 1
616 594 599 615 1
589 573 592 594 1
399 378 394 395 1
486 467 483 465 1
321 327 316 343 1
333 336 354 338 1
479 463 458 459 1
354 360 376 359 1
234 250 255 251 1
348 353 347 331 1
283 287 289 305 1
360 338 344 343 1
318 317 320 336 1
555 559 554 538 1
546 530 551 524 1
534 533 531 515 1
525 530 524 508 1
610 616 647 615 1
545 529 523 524 1
509 512 493 510 1
642 637 620 636 1
496 493 498 514 1
454 438 435 433 1
431 410 427 411 1
593 599 572 588 1
519 492 497 513 1
622 621 624 643 1
123 106 107 127 1
203 219 202 223 1
215 209 231 204 1
63 59 81 65 1
130 146 128 125 1
31 27 47 49 1
81 75 97 76 1
103 82 87 76 1
122 139 138 143 1
274 253 256 258 1
27 43 47 49 1
144 160 142 141 1
154 155 175 159 1
203 225 209 204 1
162 160 144 141 1
7 27 31 33 1
75 79 81 97 1
63 42 58 59 1
63 43 42 59 1
317 336 333 338 1
27 26 31 47 1
123 145 124 140 1
142 144 141 125 1
43 42 26 47 1
43 12 27 44 1
90 74 91 95 1
197 195 213 214 1
32 29 30 4 1
243 261 245 262 1
31 27 49 33 1
12 7 6 33 1
90 91 107 111 1
138 139 159 143 1
122 106 123 127 1
377 356 360 376 1
283 299 303 305 1
270 253 254 272 1
299 319 315 298 1
203 202 186 207 1
191 170 187 171 1
191 187 207 209 1
199 200 178 194 1
481 497 476 475 1
299 321 300 316 1
20 19 36 14 1
202 203 223 207 1
246 241 263 247 1
170 154 171 175 1
187 191 193 209 1
308 328 329 324 1
221 224 240 242 1
177 193 199 172 1
201 200 217 196 1
200 201 180 196 1
257 273 278 279 1
275 273 291 294 1
311 312 290 306 1
175 171 193 177 1
187 203 207 209 1
219 218 223 239 1
348 349 354 332 1
315 319 314 298 1
154 155 171 175 1
282 283 303 287 1
107 106 111 127 1
316 321 343 337 1
1 2 27 7 1
319 299 315 321 1
289 294 295 311 1
161 155 177 156 1
250 267 266 271 1
235 234 218 239 1
211 229 213 230 1
241 235 239 257 1
267 250 251 271 1
250 255 251 271 1
283 303 287 305 1
53 35 51 54 1
216 212 217 196 1
266 283 282 287 1
406 390 387 385 1
21 16 38 22 1
273 275 278 294 1
187 203 186 207 1
191 187 186 207 1
27 12 7 28 1
27 1 7 31 1
255 251 273 257 1
299 298 282 303 1
299 319 298 303 1
307 305 326 310 1
267 271 273 289 1
267 266 271 287 1
267 283 266 287 1
305 327 310 311 1
107 111 113 129 1
327 300 322 306 1
12 27 7 33 1
139 161 159 143 1
95 91 113 97 1
74 58 75 79 1
75 91 95 97 1
27 12 49 33 1
139 161 155 159 1
113 131 115 134 1
58 63 59 79 1
58 59 75 79 1
79 75 95 97 1
138 139 155 159 1
276 274 280 296 1
117 99 115 118 1
6 12 33 11 1
97 113 118 119 1
91 74 75 95 1
75 74 79 95 1
99 97 115 118 1
139 122 123 143 1
123 122 127 143 1
69 67 86 70 1
7 28 13 8 1
127 123 145 129 1
59 75 79 81 1
77 82 76 60 1
219 241 223 225 1
253 237 256 258 1
111 107 127 129 1
203 219 225 220 1
139 161 143 145 1
29 45 13 14 1
38 22 17 39 1
127 123 143 145 1
148 168 164 146 1
243 241 259 262 1
49 67 51 70 1
43 47 49 65 1
43 63 47 65 1
81 59 76 60 1
145 151 124 140 1
304 285 288 306 1
207 203 225 209 1
91 111 95 113 1
119 114 98 92 1
107 123 127 129 1
225 241 246 247 1
66 61 44 60 1
209 215 188 204 1
152 168 148 146 1
91 107 111 113 1
307 323 325 326 1
241 243 246 262 1
203 223 207 225 1
155 171 175 177 1
203 219 223 225 1
248 244 226 242 1
294 289 310 311 1
187 191 171 193 1
232 210 231 226 1
182 177 199 183 1
181 179 198 182 1
241 257 259 262 1
255 235 251 257 1
353 337 331 332 1
155 175 159 177 1
161 155 159 177 1
235 255 239 257 1
177 193 198 199 1
255 251 271 273 1
251 273 252 268 1
273 289 295 268 1
251 267 271 273 1
303 299 321 305 1
305 321 323 326 1
210 212 232 216 1
267 283 287 289 1
81 102 86 103 1
556 561 577 555 1
136 130 132 114 1
179 181 163 182 1
229 227 246 230 1
278 273 294 295 1
177 193 195 198 1
291 293 294 310 1
53 37 35 54 1
195 193 214 198 1
197 195 214 198 1
197 179 195 198 1
289 305 310 311 1
275 291 293 294 1
291 307 309 310 1
243 259 261 262 1
275 277 278 294 1
212 216 217 233 1
305 327 326 310 1
145 161 167 140 1
97 102 103 119 1
277 275 293 294 1
183 162 156 178 1
131 133 134 150 1
211 213 214 230 1
227 225 246 230 1
117 115 134 118 1
147 145 166 150 1
179 177 195 198 1
101 83 99 102 1
97 99 102 118 1
91 107 113 108 1
133 117 115 134 1
115 113 134 118 1
145 161 166 167 1
88 82 104 84 1
12 33 11 35 1
97 113 115 118 1
113 129 131 134 1
35 37 16 38 1
85 69 67 86 1
12 49 54 55 1
37 21 16 38 1
16 35 38 17 1
71 88 72 66 1
67 69 51 70 1
101 85 83 102 1
209 225 227 230 1
257 263 236 252 1
69 53 51 70 1
83 81 99 102 1
225 241 243 246 1
356 354 360 376 1
12 33 35 38 1
388 409 408 392 1
19 18 24 40 1
131 133 115 134 1
253 237 254 256 1
150 145 167 151 1
145 166 150 167 1
147 149 131 150 1
129 147 131 150 1
165 147 163 166 1
147 165 149 166 1
307 325 309 326 1
179 177 198 182 1
149 147 166 150 1
147 145 163 166 1
82 103 87 104 1
145 147 129 150 1
129 131 134 150 1
149 133 131 150 1
327 300 316 322 1
227 243 245 246 1
225 243 227 246 1
241 235 257 236 1
145 161 163 166 1
117 101 99 118 1
99 101 102 118 1
85 83 102 86 1
83 85 67 86 1
112 110 93 109 1
83 81 102 86 1
65 83 67 86 1
53 51 70 54 1
38 12 54 55 1
65 81 83 86 1
49 65 70 71 1
67 65 86 70 1
38 12 55 39 1
49 65 67 70 1
195 211 213 214 1
161 177 179 182 1
35 37 38 54 1
33 35 38 54 1
35 33 51 54 1
12 49 33 54 1
12 33 38 54 1
466 482 488 484 1
195 193 211 214 1
193 209 211 214 1
209 211 214 230 1
46 64 62 45 1
237 221 240 242 1
193 209 214 215 1
372 370 376 392 1
247 220 236 242 1
181 165 163 182 1
163 165 166 182 1
161 163 166 182 1
161 179 163 182 1
305 323 307 326 1
11 12 35 17 1
19 40 36 14 1
12 38 17 39 1
211 209 227 230 1
259 275 277 278 1
348 354 375 359 1
354 356 372 376 1
261 259 277 278 1
261 259 278 262 1
35 12 38 17 1
243 245 246 262 1
259 257 275 278 1
370 372 388 392 1
16 38 22 17 1
257 273 275 278 1
259 257 278 262 1
322 340 338 344 1
372 356 377 376 1
291 309 293 310 1
289 291 294 310 1
289 307 291 310 1
11 35 16 17 1
257 278 262 279 1
199 193 188 172 1
246 241 262 263 1
279 263 252 258 1
269 253 270 272 1
241 257 262 263 1
249 248 265 244 1
184 180 164 162 1
273 289 294 295 1
278 273 295 279 1
236 220 237 242 1
486 467 485 483 1
162 157 141 140 1
299 315 321 316 1
222 221 224 240 1
274 279 280 296 1
274 295 279 296 1
130 152 148 146 1
82 104 100 98 1
71 87 88 66 1
214 209 230 231 1
193 187 209 188 1
113 134 118 135 1
232 210 215 231 1
209 214 215 231 1
193 214 198 215 1
89 88 84 68 1
232 248 249 228 1
209 225 230 231 1
88 82 84 66 1
210 188 189 194 1
166 161 182 183 1
137 136 153 132 1
232 210 216 215 1
173 157 176 178 1
161 177 182 183 1
225 246 230 247 1
225 230 231 247 1
288 285 290 306 1
177 198 182 199 1
81 97 102 103 1
198 193 215 199 1
176 173 178 194 1
219 241 220 236 1
276 274 296 292 1
177 199 183 172 1
232 249 233 228 1
248 249 228 244 1
274 252 253 258 1
118 113 135 119 1
241 219 235 236 1
212 210 232 228 1
75 97 76 92 1
251 267 273 268 1
212 232 216 233 1
113 129 134 135 1
98 114 93 92 1
129 145 150 151 1
43 59 65 60 1
129 134 135 151 1
134 129 150 151 1
102 97 118 119 1
88 84 68 66 1
45 50 13 14 1
49 70 54 71 1
71 66 44 60 1
86 81 103 87 1
65 86 70 87 1
66 82 61 60 1
65 81 86 87 1
29 50 45 14 1
103 119 120 98 1
22 17 39 23 1
162 167 156 140 1
49 54 55 71 1
103 120 104 98 1
327 311 300 306 1
17 39 23 18 1
17 12 39 18 1
168 169 148 164 1
146 141 125 124 1
104 82 100 84 1
130 112 114 109 1
130 151 152 146 1
75 91 97 92 1
34 29 32 9 1
94 112 110 93 1
56 52 36 34 1
19 41 20 36 1
39 23 18 40 1
18 23 24 40 1
130 135 136 152 1
210 215 188 194 1
72 88 89 68 1
136 130 152 132 1
135 130 151 152 1
82 87 88 104 1
295 274 279 268 1
48 64 46 45 1
81 103 87 76 1
184 201 185 180 1
104 121 105 100 1
257 273 279 252 1
89 88 105 84 1
116 136 132 114 1
88 104 105 84 1
280 276 296 297 1
296 313 297 292 1
32 29 4 9 1
10 32 4 9 1
15 34 10 9 1
136 152 153 132 1
153 152 148 132 1
312 308 329 313 1
189 173 190 192 1
312 308 313 292 1
265 264 260 244 1
212 232 233 228 1
279 274 252 268 1
172 199 178 194 1
301 304 320 322 1
247 248 226 242 1
352 368 349 370 1
276 280 281 297 1
388 372 393 392 1
72 88 68 66 1
152 130 148 132 1
73 72 89 68 1
123 139 145 140 1
169 168 185 164 1
25 19 41 20 1
34 32 10 9 1
126 144 142 125 1
184 200 201 180 1
40 57 41 36 1
151 167 168 146 1
65 87 71 60 1
152 168 169 148 1
121 120 137 116 1
296 312 313 292 1
251 273 257 252 1
350 368 366 349 1
324 328 322 306 1
256 237 240 258 1
269 272 288 290 1
253 254 272 256 1
361 340 345 344 1
56 72 52 50 1
284 295 268 290 1
265 264 281 260 1
264 280 281 260 1
280 276 281 260 1
237 236 242 258 1
253 236 237 258 1
66 61 45 44 1
321 327 300 316 1
98 93 77 76 1
29 50 34 32 1
120 136 137 116 1
153 152 169 148 1
57 56 52 36 1
121 120 116 100 1
120 121 104 100 1
87 82 88 66 1
103 98 76 92 1
28 29 13 8 1
267 283 289 284 1
15 36 34 14 1
105 104 100 84 1
173 157 174 176 1
82 64 66 61 1
29 50 48 45 1
168 184 185 164 1
185 184 180 164 1
56 55 72 50 1
52 72 68 50 1
128 126 109 125 1
68 72 66 50 1
57 56 73 52 1
104 120 100 98 1
19 40 41 36 1
168 167 162 146 1
56 72 73 52 1
183 184 167 162 1
78 80 77 61 1
151 168 152 146 1
82 103 104 98 1
56 57 40 36 1
120 119 114 98 1
116 120 114 98 1
120 119 136 114 1
120 136 116 114 1
93 114 109 92 1
52 56 50 34 1
9 29 8 14 1
40 56 36 34 1
107 123 129 124 1
135 130 136 114 1
119 135 136 114 1
151 146 124 140 1
161 139 156 140 1
12 7 28 13 1
164 168 162 146 1
98 93 76 92 1
120 116 100 98 1
274 252 268 269 1
167 184 168 162 1
168 184 164 162 1
130 146 125 124 1
119 135 114 108 1
161 139 155 156 1
91 113 92 108 1
113 135 119 108 1
162 157 160 141 1
29 13 8 14 1
129 145 151 124 1
130 151 146 124 1
59 75 81 76 1
317 301 320 322 1
82 98 77 76 1
167 161 156 140 1
55 71 72 50 1
72 71 66 50 1
225 203 220 204 1
29 48 46 45 1
40 56 34 14 1
15 34 9 14 1
193 171 188 172 1
285 286 304 288 1
171 187 193 188 1
144 146 141 125 1
112 128 110 109 1
12 49 55 13 1
36 40 34 14 1
146 162 144 141 1
146 144 128 125 1
32 29 48 30 1
62 64 61 45 1
123 145 129 124 1
82 87 76 60 1
145 167 151 140 1
71 87 66 60 1
96 112 94 93 1
160 157 158 141 1
91 113 97 92 1
114 112 96 93 1
151 167 146 140 1
98 114 96 93 1
87 82 66 60 1
64 82 80 61 1
103 119 98 92 1
130 128 109 125 1
97 113 119 92 1
82 77 61 60 1
64 80 62 61 1
59 81 65 60 1
97 103 76 92 1
128 144 126 125 1
146 162 141 140 1
103 97 119 92 1
112 130 128 109 1
80 82 77 61 1
80 78 62 61 1
29 3 4 9 1
82 103 98 76 1
66 64 48 45 1
80 96 78 77 1
94 96 93 77 1
96 94 78 77 1
65 81 87 60 1
87 81 76 60 1
82 98 80 77 1
80 98 96 77 1
96 98 93 77 1
316 300 317 322 1
50 66 45 44 1
12 43 49 44 1
12 27 44 28 1
71 66 50 44 1
49 43 65 44 1
215 210 188 204 1
49 12 44 13 1
40 19 13 14 1
188 199 172 194 1
171 193 177 172 1
55 71 50 44 1
55 49 71 44 1
49 65 71 44 1
56 40 13 14 1
50 56 13 14 1
2 27 7 28 1
56 50 34 14 1
177 183 156 172 1
161 177 183 156 1
114 109 92 108 1
161 183 167 156 1
167 183 162 156 1
113 119 92 108 1
119 114 92 108 1
113 107 129 108 1
129 107 124 108 1
135 129 151 124 1
130 135 151 124 1
34 29 9 14 1
44 12 28 13 1
19 18 40 13 1
167 162 146 140 1
135 130 114 108 1
109 130 125 108 1
125 130 124 108 1
113 129 135 108 1
135 129 124 108 1
12 55 39 13 1
12 39 18 13 1
50 55 44 13 1
45 44 28 13 1
45 50 44 13 1
7 2 28 8 1
193 215 199 188 1
18 39 40 13 1
29 3 9 8 1
173 174 192 176 1
29 45 28 13 1
3 29 28 8 1
39 56 40 13 1
254 237 238 256 1
2 3 28 8 1
274 279 252 258 1
56 55 50 13 1
39 55 56 13 1
231 225 220 204 1
295 289 284 268 1
311 295 284 290 1
296 295 312 290 1
193 209 215 188 1
231 225 247 220 1
219 241 225 220 1
225 241 247 220 1
295 274 268 290 1
263 264 242 258 1
455 434 439 428 1
210 215 231 204 1
187 209 188 204 1
187 203 209 204 1
224 221 226 242 1
209 225 231 204 1
285 286 302 304 1
295 289 311 284 1
273 295 279 268 1
289 305 311 284 1
289 283 305 284 1
352 368 350 349 1
283 299 305 300 1
283 305 284 300 1
300 301 322 306 1
305 311 284 300 1
321 327 305 300 1
299 321 305 300 1
305 327 311 300 1
189 190 206 208 1
301 285 304 306 1
269 274 253 272 1
200 216 196 194 1
231 210 204 226 1
221 205 222 224 1
210 188 204 205 1
264 248 247 242 1
263 264 247 242 1
220 247 226 242 1
205 189 206 208 1
238 221 222 240 1
274 252 269 253 1
301 285 302 304 1
210 188 205 189 1
384 365 368 386 1
252 236 253 258 1
237 221 238 240 1
200 196 178 194 1
237 238 256 240 1
192 173 176 194 1
274 276 280 258 1
172 156 173 178 1
285 269 288 290 1
352 334 336 333 1
216 212 196 194 1
274 253 272 256 1
221 220 226 242 1
286 285 269 288 1
183 156 172 178 1
173 174 190 192 1
180 200 196 178 1
300 284 301 306 1
264 260 244 242 1
312 308 292 290 1
311 284 300 306 1
284 311 290 306 1
312 308 290 306 1
382 365 384 381 1
248 264 244 242 1
284 268 285 290 1
210 189 192 194 1
205 210 189 208 1
286 269 270 288 1
270 269 272 288 1
315 319 337 335 1
318 301 302 320 1
302 301 304 320 1
308 328 324 306 1
429 432 450 434 1
222 205 206 224 1
157 160 158 176 1
190 189 192 208 1
205 206 224 208 1
263 247 236 242 1
189 210 192 208 1
247 231 220 226 1
199 183 172 178 1
220 231 204 226 1
220 204 221 226 1
221 205 224 226 1
210 232 228 226 1
157 158 174 176 1
189 173 192 194 1
172 173 189 194 1
210 212 216 194 1
215 199 188 194 1
210 216 215 194 1
173 172 178 194 1
215 216 199 194 1
205 210 208 226 1
224 205 208 226 1
157 162 160 178 1
228 248 244 226 1
236 263 242 258 1
183 184 162 178 1
264 260 242 258 1
232 248 228 226 1
248 232 231 226 1
248 231 247 226 1
204 210 205 226 1
204 205 221 226 1
240 237 242 258 1
263 236 252 258 1
280 276 260 258 1
184 180 162 178 1
220 221 237 242 1
274 295 296 290 1
274 296 292 290 1
368 365 349 370 1
199 200 183 178 1
162 157 156 178 1
156 157 173 178 1
184 200 180 178 1
200 184 183 178 1
216 200 199 194 1
264 280 260 258 1
279 274 280 258 1
263 279 280 258 1
263 280 264 258 1
296 312 292 290 1
295 311 312 290 1
285 268 269 290 1
268 274 269 290 1
334 317 318 336 1
333 352 349 354 1
311 327 328 306 1
328 327 322 306 1
311 328 312 306 1
328 308 312 306 1
301 284 285 306 1
285 284 290 306 1
473 452 456 472 1
348 354 359 332 1
448 445 429 450 1
374 355 371 353 1
365 382 384 366 1
416 432 414 413 1
464 462 445 461 1
466 464 445 461 1
342 323 341 339 1
336 352 333 354 1
351 353 335 331 1
478 480 477 461 1
464 480 462 461 1
352 350 333 349 1
401 379 395 396 1
316 315 337 332 1
398 400 397 381 1
449 447 443 427 1
451 454 435 433 1
450 429 434 428 1
422 438 439 417 1
455 434 456 439 1
470 471 449 465 1
455 471 450 444 1
466 482 464 461 1
462 480 478 461 1
432 448 430 429 1
423 418 440 424 1
400 416 398 397 1
594 578 600 599 1
418 423 440 439 1
417 412 395 411 1
434 418 440 439 1
448 466 464 445 1
416 413 418 434 1
437 438 419 435 1
480 482 477 461 1
482 480 464 461 1
446 448 445 429 1
448 446 430 429 1
382 384 400 381 1
414 432 430 413 1
430 432 429 413 1
334 352 350 333 1
414 416 413 397 1
416 414 398 397 1
340 324 345 344 1
415 399 394 395 1
417 401 395 396 1
386 391 408 407 1
513 511 491 495 1
365 368 386 370 1
552 553 532 548 1
484 488 505 504 1
608 610 589 592 1
642 624 643 648 1
525 526 544 528 1
608 606 590 589 1
525 509 526 528 1
492 519 514 508 1
530 509 514 508 1
557 541 558 560 1
544 541 546 562 1
609 625 645 603 1
590 608 589 592 1
557 560 578 562 1
519 497 518 513 1
605 608 624 626 1
512 509 493 514 1
576 557 558 560 1
466 488 471 472 1
420 425 441 424 1
556 561 567 583 1
512 493 496 514 1
542 541 544 560 1
500 498 504 520 1
492 519 498 514 1
456 434 440 439 1
509 512 530 514 1
626 632 652 647 1
650 630 625 645 1
566 550 549 547 1
525 542 541 544 1
530 552 551 535 1
590 589 573 592 1
518 497 502 499 1
530 514 532 536 1
509 512 528 530 1
412 417 433 411 1
621 605 622 624 1
608 606 605 624 1
605 606 622 624 1
480 478 477 496 1
542 525 526 544 1
590 573 574 592 1
525 528 546 530 1
512 493 494 496 1
477 478 494 496 1
400 397 381 402 1
541 542 558 560 1
596 617 616 600 1
637 621 638 643 1
621 637 642 643 1
621 642 624 643 1
530 514 535 508 1
632 631 647 615 1
541 544 560 562 1
509 512 510 528 1
509 510 526 528 1
525 509 528 530 1
516 537 536 520 1
541 525 544 546 1
576 557 560 578 1
529 513 507 508 1
573 556 557 578 1
576 573 557 578 1
412 423 418 439 1
621 605 624 626 1
323 325 326 342 1
521 537 516 520 1
604 609 603 587 1
503 492 519 498 1
482 480 477 498 1
477 480 496 498 1
493 477 496 498 1
415 410 431 411 1
415 417 395 411 1
445 429 450 428 1
540 551 567 545 1
651 631 630 646 1
509 492 493 514 1
493 492 498 514 1
557 541 560 562 1
557 540 541 562 1
541 540 546 562 1
498 500 516 520 1
488 466 484 468 1
397 400 418 402 1
400 416 397 418 1
416 413 397 418 1
432 429 413 434 1
416 432 413 434 1
365 384 381 386 1
335 314 330 331 1
374 358 355 353 1
471 466 450 444 1
393 372 377 376 1
402 397 380 396 1
365 348 349 370 1
349 348 354 370 1
616 594 600 599 1
429 412 413 434 1
413 412 418 434 1
384 381 386 402 1
384 400 381 402 1
338 322 344 343 1
327 321 326 343 1
409 425 404 408 1
404 425 424 408 1
457 436 441 440 1
626 628 653 652 1
420 441 440 424 1
436 420 441 440 1
503 519 497 502 1
613 614 597 595 1
391 370 392 375 1
370 354 372 376 1
328 324 322 344 1
386 370 388 392 1
338 340 360 344 1
328 329 324 345 1
391 375 374 369 1
327 328 322 344 1
324 340 322 344 1
424 402 408 407 1
418 420 440 424 1
436 418 420 440 1
401 379 399 395 1
484 488 489 505 1
546 552 530 548 1
500 521 516 520 1
530 552 532 548 1
626 610 628 632 1
658 628 632 657 1
498 482 500 504 1
532 514 516 536 1
406 405 403 387 1
514 519 536 535 1
450 434 452 456 1
594 596 612 616 1
648 626 653 647 1
617 633 612 616 1
653 626 652 647 1
482 488 484 504 1
594 578 596 600 1
630 609 627 625 1
594 596 616 600 1
537 553 532 536 1
553 552 532 536 1
642 624 648 647 1
561 540 567 545 1
537 532 516 536 1
552 530 532 536 1
612 633 632 616 1
484 505 500 504 1
505 521 500 504 1
521 500 504 520 1
503 482 498 504 1
482 484 500 504 1
628 610 612 632 1
596 617 612 616 1
569 585 564 568 1
610 612 632 616 1
566 547 563 545 1
601 596 580 600 1
601 580 584 600 1
610 594 612 616 1
624 626 648 647 1
552 569 548 568 1
548 569 564 568 1
633 628 612 632 1
401 379 383 399 1
633 658 628 632 1
530 514 536 535 1
562 546 564 568 1
546 548 564 568 1
546 552 548 568 1
514 498 516 520 1
519 503 498 520 1
498 503 504 520 1
562 568 584 567 1
468 473 489 472 1
473 452 457 456 1
585 580 564 584 1
585 564 568 584 1
452 436 457 456 1
488 468 489 472 1
578 562 580 584 1
580 562 564 584 1
564 562 568 584 1
434 436 452 456 1
450 455 434 456 1
466 471 450 472 1
610 589 594 588 1
535 519 518 513 1
610 594 616 615 1
596 578 580 600 1
580 578 584 600 1
356 340 361 360 1
391 386 408 392 1
386 391 370 392 1
404 425 420 424 1
434 418 436 440 1
466 450 468 472 1
468 450 452 472 1
452 450 456 472 1
471 455 450 472 1
450 455 456 472 1
402 404 420 424 1
418 423 402 424 1
418 402 420 424 1
404 386 388 408 1
402 404 424 408 1
386 404 402 408 1
322 327 344 343 1
609 630 614 645 1
354 338 356 360 1
423 402 424 407 1
338 340 356 360 1
493 477 498 476 1
354 376 375 359 1
497 518 515 499 1
632 631 657 652 1
393 372 376 392 1
409 388 393 392 1
354 338 360 359 1
466 445 450 444 1
628 632 657 652 1
628 626 632 652 1
402 386 408 407 1
370 376 392 375 1
658 628 657 652 1
628 658 653 652 1
642 621 624 647 1
624 621 626 647 1
630 651 646 645 1
626 610 632 647 1
375 359 358 353 1
604 610 605 647 1
605 610 626 647 1
621 604 605 647 1
621 605 626 647 1
632 610 616 647 1
353 337 335 331 1
358 339 355 337 1
348 354 370 375 1
370 354 376 375 1
549 550 533 531 1
467 469 486 485 1
321 323 326 342 1
321 326 343 342 1
316 327 322 343 1
316 322 338 343 1
351 330 347 331 1
351 335 330 331 1
389 390 371 387 1
348 375 369 353 1
465 449 447 443 1
525 509 530 508 1
323 325 342 341 1
390 374 371 369 1
321 323 342 339 1
449 455 428 444 1
454 438 437 435 1
454 437 453 435 1
369 348 347 364 1
455 450 428 444 1
616 632 647 615 1
412 418 434 439 1
546 552 568 551 1
655 650 627 649 1
365 348 370 364 1
503 482 504 487 1
482 466 488 487 1
488 466 471 487 1
386 365 370 364 1
479 458 474 475 1
315 319 321 337 1
479 481 463 459 1
497 492 476 475 1
437 438 421 419 1
486 503 487 481 1
483 486 465 481 1
552 546 530 551 1
539 543 559 538 1
654 655 627 649 1
534 518 515 513 1
562 546 568 567 1
568 546 551 567 1
435 438 417 433 1
561 540 556 567 1
650 656 655 630 1
556 540 562 567 1
546 540 551 567 1
540 546 562 567 1
407 402 380 396 1
598 599 577 593 1
531 534 515 513 1
540 545 523 524 1
578 584 600 583 1
578 600 599 583 1
578 562 584 583 1
584 562 567 583 1
597 598 579 595 1
578 556 562 583 1
562 556 567 583 1
647 642 620 641 1
657 631 656 651 1
631 657 652 651 1
650 651 630 645 1
577 593 571 575 1
513 492 491 508 1
631 656 651 630 1
651 656 650 630 1
647 604 646 620 1
406 403 401 385 1
501 502 483 499 1
567 551 550 545 1
549 550 531 547 1
540 561 556 539 1
422 423 401 417 1
650 627 649 625 1
614 595 611 593 1
529 507 524 508 1
655 629 654 627 1
534 535 518 513 1
565 566 547 563 1
598 581 597 579 1
358 341 357 339 1
419 422 401 417 1
315 314 335 331 1
486 487 465 481 1
423 422 439 417 1
469 470 453 451 1
487 482 460 476 1
469 467 470 451 1
460 481 476 459 1
390 374 373 371 1
379 383 378 362 1
407 391 390 385 1
358 342 339 337 1
342 321 339 337 1
374 358 357 355 1
374 357 373 355 1
375 348 359 353 1
422 406 405 403 1
502 486 485 483 1
614 598 597 595 1
581 582 565 563 1
501 502 485 483 1
455 454 449 433 1
502 486 483 481 1
497 503 502 481 1
477 482 498 476 1
497 502 499 481 1
438 422 419 417 1
454 451 449 433 1
550 534 533 531 1
373 374 355 371 1
609 604 588 587 1
439 412 417 433 1
454 453 451 435 1
418 397 402 396 1
403 406 387 385 1
389 390 373 371 1
467 470 451 449 1
399 379 378 395 1
652 631 651 646 1
358 342 341 339 1
390 389 406 387 1
534 517 533 515 1
354 338 359 332 1
390 387 385 369 1
421 422 405 403 1
422 421 419 403 1
503 487 481 476 1
390 371 387 369 1
374 371 369 353 1
402 386 407 380 1
358 359 337 353 1
406 389 405 387 1
381 386 402 380 1
518 502 501 499 1
518 517 515 499 1
650 630 627 625 1
379 401 380 396 1
391 386 364 380 1
582 566 565 563 1
582 561 566 563 1
561 566 563 545 1
566 550 547 545 1
594 589 572 588 1
630 614 613 611 1
598 582 581 579 1
629 630 613 611 1
541 525 546 524 1
511 507 491 490 1
581 582 563 579 1
582 561 563 579 1
343 321 342 337 1
518 497 515 513 1
613 614 595 611 1
614 598 595 593 1
621 604 647 620 1
609 614 611 593 1
642 621 647 620 1
615 599 598 593 1
535 529 524 508 1
630 609 611 627 1
629 630 611 627 1
655 650 630 627 1
629 655 630 627 1
534 535 513 529 1
514 519 535 508 1
513 511 529 507 1
531 534 513 529 1
509 492 514 508 1
556 561 583 577 1
583 561 582 577 1
582 561 579 577 1
650 649 644 625 1
599 583 582 577 1
646 647 620 641 1
598 579 595 577 1
522 523 543 527 1
599 582 598 577 1
598 582 579 577 1
492 497 513 491 1
497 492 475 491 1
391 390 385 369 1
390 391 374 369 1
438 455 439 433 1
577 593 572 571 1
561 567 566 545 1
566 567 550 545 1
534 551 535 529 1
475 497 491 495 1
618 640 639 623 1
550 547 545 529 1
550 531 547 529 1
550 534 531 529 1
551 534 550 529 1
551 550 545 529 1
620 642 636 641 1
631 652 647 646 1
599 594 572 588 1
610 604 615 646 1
604 610 647 646 1
647 610 615 646 1
604 609 615 646 1
631 647 615 646 1
630 631 614 646 1
315 321 316 337 1
615 609 614 646 1
631 615 614 646 1
423 407 406 401 1
381 365 386 364 1
429 412 434 428 1
419 422 403 401 1
423 406 422 401 1
422 406 403 401 1
349 333 354 332 1
354 333 338 332 1
375 374 369 353 1
407 406 401 385 1
407 390 406 385 1
401 379 385 383 1
355 358 337 353 1
503 486 502 481 1
386 381 364 380 1
502 483 499 481 1
438 439 417 433 1
471 455 454 449 1
482 477 460 476 1
471 454 470 449 1
470 454 451 449 1
481 487 460 476 1
433 449 428 427 1
379 383 399 378 1
385 369 367 363 1
369 347 363 364 1
449 455 433 428 1
447 449 431 427 1
479 481 459 475 1
458 479 459 475 1
471 470 487 465 1
467 486 470 465 1
470 486 487 465 1
511 529 507 527 1
367 369 347 363 1
442 447 426 443 1
410 415 394 411 1
434 412 439 428 1
465 460 444 443 1
431 410 426 427 1
447 426 443 427 1
471 455 449 444 1
529 523 507 527 1
481 476 459 475 1
482 503 498 476 1
461 466 460 444 1
463 465 443 459 1
449 433 431 427 1
503 482 487 476 1
492 493 498 476 1
455 439 433 428 1
455 450 434 428 1
492 503 497 476 1
439 412 433 428 1
503 492 498 476 1
497 503 481 476 1
447 431 426 427 1
346 367 347 363 1
367 351 346 347 1
417 401 399 395 1
346 351 330 347 1
337 315 335 331 1
383 367 362 363 1
379 401 385 380 1
379 383 362 363 1
348 353 331 332 1
412 413 418 396 1
413 397 418 396 1
423 418 402 396 1
401 407 380 396 1
353 351 347 331 1
367 369 351 347 1
333 316 338 332 1
369 348 353 347 1
369 353 351 347 1
583 556 577 572 1
385 367 383 363 1
379 385 383 363 1
363 385 364 380 1
385 391 364 380 1
379 385 363 380 1
463 442 458 459 1
397 381 402 380 1
423 412 418 396 1
412 417 395 396 1
370 348 375 364 1
375 348 369 364 1
391 386 370 364 1
385 369 363 364 1
391 375 369 364 1
391 370 375 364 1
385 391 369 364 1
386 391 407 380 1
407 391 385 380 1
401 407 385 380 1
343 316 337 332 1
359 338 343 332 1
359 343 337 332 1
359 337 353 332 1
348 359 353 332 1
423 402 407 396 1
423 407 401 396 1
423 401 417 396 1
412 423 417 396 1
471 465 460 444 1
412 433 428 411 1
466 482 461 460 1
445 466 461 444 1
433 415 431 411 1
482 477 461 460 1
428 433 427 411 1
433 417 415 411 1
463 447 442 443 1
482 466 487 460 1
487 465 481 460 1
465 460 443 459 1
466 471 487 460 1
487 471 465 460 1
449 465 444 443 1
465 447 463 443 1
433 431 427 411 1
465 481 460 459 1
481 465 463 459 1
497 481 479 475 1
513 511 507 491 1
618 640 635 634 1
535 519 513 508 1
546 525 530 524 1
428 449 444 427 1
444 449 443 427 1
539 522 543 538 1
523 529 507 524 1
556 561 555 539 1
599 578 583 572 1
530 535 524 508 1
545 540 523 539 1
511 507 490 506 1
609 603 587 607 1
519 492 513 508 1
625 603 607 623 1
637 621 642 620 1
555 577 572 571 1
540 546 551 524 1
573 578 594 572 1
599 577 593 572 1
589 573 594 572 1
551 530 535 524 1
593 609 588 587 1
551 535 529 524 1
540 551 545 524 1
545 551 529 524 1
577 556 555 572 1
573 556 578 572 1
507 511 527 506 1
599 583 577 572 1
640 618 635 619 1
594 599 615 588 1
615 599 593 588 1
610 594 615 588 1
604 610 615 588 1
589 610 605 588 1
610 604 605 588 1
609 604 615 588 1
609 615 593 588 1
587 571 591 570 1
523 507 527 506 1
640 618 619 623 1
593 609 587 591 1
604 609 646 603 1
646 609 645 603 1
587 591 586 570 1
604 646 620 603 1
641 640 635 619 1
636 641 635 619 1
603 625 619 623 1
572 593 588 571 1
588 593 587 571 1
636 620 641 619 1
620 646 641 619 1
641 646 640 619 1
646 620 603 619 1
645 646 603 619 1
646 645 640 619 1
625 645 603 619 1
609 625 603 607 1
593 587 571 591 1
587 609 607 591 1
640 645 639 623 1
645 640 619 623 1
625 645 619 623 1
625 644 645 623 1
645 644 639 623 1
497 513 491 495 1
479 497 475 495 1
545 561 539 543 1
593 571 575 591 1
575 571 554 570 1
523 545 539 543 1
522 523 539 543 1
571 555 575 554 1
561 577 555 559 1
555 577 575 559 1
561 555 539 559 1
561 539 543 559 1
474 479 475 495 1
474 475 491 495 1
529 545 523 527 1
523 545 543 527 1
575 555 559 554 1
603 607 602 586 1
640 618 639 634 1
491 474 495 490 1
511 491 495 490 1
522 523 527 506 1
571 575 591 570 1
603 607 623 602 1
619 603 623 602 1
618 619 623 602 1
603 587 607 586 1
