MeshVersionFormatted 1
Dimension 3
Vertices
382
0.104145 2.3086180000000001 -0.033839000000000001 1
0.088591000000000003 2.3086180000000001 -0.064365000000000006 1
0.064365000000000006 2.3086180000000001 -0.088591000000000003 1
0.033839000000000001 2.3086180000000001 -0.104145 1
0 2.3086180000000001 -0.109504 1
-0.033839000000000001 2.3086180000000001 -0.104145 1
-0.064365000000000006 2.3086180000000001 -0.088591000000000003 1
-0.088591000000000003 2.3086180000000001 -0.064365000000000006 1
-0.104145 2.3086180000000001 -0.033839000000000001 1
-0.109504 2.3086180000000001 0 1
-0.104145 2.3086180000000001 0.033839000000000001 1
-0.088591000000000003 2.3086180000000001 0.064365000000000006 1
-0.064365000000000006 2.3086180000000001 0.088591000000000003 1
-0.033839000000000001 2.3086180000000001 0.104145 1
-0 2.3086180000000001 0.109504 1
0.033839000000000001 2.3086180000000001 0.104145 1
0.064365000000000006 2.3086180000000001 0.088591000000000003 1
0.088591000000000003 2.3086180000000001 0.064365000000000006 1
0.104145 2.3086180000000001 0.033839000000000001 1
0.109504 2.3086180000000001 0 1
0.20572499999999999 2.33426 -0.066844000000000001 1
0.17499999999999999 2.33426 -0.12714500000000001 1
0.12714500000000001 2.33426 -0.17499999999999999 1
0.066844000000000001 2.33426 -0.20572499999999999 1
0 2.33426 -0.216312 1
-0.066844000000000001 2.33426 -0.20572499999999999 1
-0.12714500000000001 2.33426 -0.17499999999999999 1
-0.17499999999999999 2.33426 -0.12714500000000001 1
-0.20572499999999999 2.33426 -0.066844000000000001 1
-0.216312 2.33426 0 1
-0.20572499999999999 2.33426 0.066844000000000001 1
-0.17499999999999999 2.33426 0.12714500000000001 1
-0.12714500000000001 2.33426 0.17499999999999999 1
-0.066844000000000001 2.33426 0.20572499999999999 1
-0 2.33426 0.216312 1
0.066844000000000001 2.33426 0.20572499999999999 1
0.12714500000000001 2.33426 0.17499999999999999 1
0.17499999999999999 2.33426 0.12714500000000001 1
0.20572499999999999 2.33426 0.066844000000000001 1
0.216312 2.33426 0 1
0.30224000000000001 2.3762949999999998 -0.098204 1
0.2571 2.3762949999999998 -0.18679399999999999 1
0.18679399999999999 2.3762949999999998 -0.2571 1
0.098204 2.3762949999999998 -0.30224000000000001 1
0 2.3762949999999998 -0.31779400000000002 1
-0.098204 2.3762949999999998 -0.30224000000000001 1
-0.18679399999999999 2.3762949999999998 -0.2571 1
-0.2571 2.3762949999999998 -0.18679399999999999 1
-0.30224000000000001 2.3762949999999998 -0.098204 1
-0.31779299999999999 2.3762949999999998 0 1
-0.30224000000000001 2.3762949999999998 0.098204 1
-0.2571 2.3762949999999998 0.18679399999999999 1
-0.18679399999999999 2.3762949999999998 0.2571 1
-0.098204 2.3762949999999998 0.30224000000000001 1
-0 2.3762949999999998 0.31779299999999999 1
0.098204 2.3762949999999998 0.30223899999999998 1
0.18679399999999999 2.3762949999999998 0.2571 1
0.2571 2.3762949999999998 0.18679399999999999 1
0.30223899999999998 2.3762949999999998 0.098204 1
0.31779299999999999 2.3762949999999998 0 1
0.39131199999999999 2.4336880000000001 -0.12714500000000001 1
0.33287 2.4336880000000001 -0.241844 1
0.241844 2.4336880000000001 -0.33287 1
0.12714500000000001 2.4336880000000001 -0.39131199999999999 1
0 2.4336880000000001 -0.41144999999999998 1
-0.12714500000000001 2.4336880000000001 -0.39131199999999999 1
-0.241844 2.4336880000000001 -0.33287 1
-0.33287 2.4336880000000001 -0.241844 1
-0.39131199999999999 2.4336880000000001 -0.12714500000000001 1
-0.41144999999999998 2.4336880000000001 0 1
-0.39131199999999999 2.4336880000000001 0.12714500000000001 1
-0.33287 2.4336880000000001 0.241844 1
-0.241844 2.4336880000000001 0.33287 1
-0.12714500000000001 2.4336880000000001 0.39131199999999999 1
-0 2.4336880000000001 0.41144999999999998 1
0.12714500000000001 2.4336880000000001 0.39131199999999999 1
0.241844 2.4336880000000001 0.33287 1
0.33287 2.4336880000000001 0.241844 1
0.39131199999999999 2.4336880000000001 0.12714500000000001 1
0.41144999999999998 2.4336880000000001 0 1
0.47074899999999997 2.5050249999999998 -0.15295600000000001 1
0.40044299999999999 2.5050249999999998 -0.290939 1
0.290939 2.5050249999999998 -0.40044299999999999 1
0.15295600000000001 2.5050249999999998 -0.47074899999999997 1
0 2.5050249999999998 -0.494975 1
-0.15295600000000001 2.5050249999999998 -0.47074899999999997 1
-0.290939 2.5050249999999998 -0.40044299999999999 1
-0.40044299999999999 2.5050249999999998 -0.290939 1
-0.47074899999999997 2.5050249999999998 -0.15295600000000001 1
-0.494975 2.5050249999999998 0 1
-0.47074899999999997 2.5050249999999998 0.15295600000000001 1
-0.40044299999999999 2.5050249999999998 0.290939 1
-0.290939 2.5050249999999998 0.40044299999999999 1
-0.15295600000000001 2.5050249999999998 0.47074899999999997 1
-0 2.5050249999999998 0.494975 1
0.15295600000000001 2.5050249999999998 0.47074899999999997 1
0.290939 2.5050249999999998 0.40044299999999999 1
0.40044299999999999 2.5050249999999998 0.290939 1
0.47074899999999997 2.5050249999999998 0.15295600000000001 1
0.494975 2.5050249999999998 0 1
0.53859500000000005 2.5885500000000001 -0.17499999999999999 1
0.45815600000000001 2.5885500000000001 -0.33287 1
0.33287 2.5885500000000001 -0.45815600000000001 1
0.17499999999999999 2.5885500000000001 -0.53859500000000005 1
0 2.5885500000000001 -0.56631200000000004 1
-0.17499999999999999 2.5885500000000001 -0.53859500000000005 1
-0.33287 2.5885500000000001 -0.45815600000000001 1
-0.45815600000000001 2.5885500000000001 -0.33287 1
-0.53859500000000005 2.5885500000000001 -0.17499999999999999 1
-0.56631200000000004 2.5885500000000001 0 1
-0.53859500000000005 2.5885500000000001 0.17499999999999999 1
-0.45815600000000001 2.5885500000000001 0.33287 1
-0.33287 2.5885500000000001 0.45815600000000001 1
-0.17499999999999999 2.5885500000000001 0.53859500000000005 1
-0 2.5885500000000001 0.56631200000000004 1
0.17499999999999999 2.5885500000000001 0.53859500000000005 1
0.33287 2.5885500000000001 0.45815600000000001 1
0.45815600000000001 2.5885500000000001 0.33287 1
0.53859500000000005 2.5885500000000001 0.17499999999999999 1
0.56631200000000004 2.5885500000000001 0 1
0.59317900000000001 2.682207 -0.19273499999999999 1
0.50458800000000004 2.682207 -0.36660500000000001 1
0.36660500000000001 2.682207 -0.50458800000000004 1
0.19273499999999999 2.682207 -0.59317900000000001 1
0 2.682207 -0.62370499999999995 1
-0.19273499999999999 2.682207 -0.59317900000000001 1
-0.36660399999999999 2.682207 -0.50458800000000004 1
-0.50458800000000004 2.682207 -0.36660399999999999 1
-0.59317799999999998 2.682207 -0.19273499999999999 1
-0.62370499999999995 2.682207 0 1
-0.59317799999999998 2.682207 0.19273499999999999 1
-0.50458800000000004 2.682207 0.36660399999999999 1
-0.36660399999999999 2.682207 0.50458800000000004 1
-0.19273499999999999 2.682207 0.59317799999999998 1
-0 2.682207 0.62370499999999995 1
0.19273499999999999 2.682207 0.59317799999999998 1
0.36660399999999999 2.682207 0.50458800000000004 1
0.50458800000000004 2.682207 0.36660399999999999 1
0.59317799999999998 2.682207 0.19273499999999999 1
0.62370499999999995 2.682207 0 1
0.63315600000000005 2.7836880000000002 -0.20572499999999999 1
0.53859500000000005 2.7836880000000002 -0.39131199999999999 1
0.39131199999999999 2.7836880000000002 -0.53859500000000005 1
0.20572499999999999 2.7836880000000002 -0.63315600000000005 1
0 2.7836880000000002 -0.66574 1
-0.20572499999999999 2.7836880000000002 -0.63315600000000005 1
-0.39131199999999999 2.7836880000000002 -0.53859500000000005 1
-0.53859500000000005 2.7836880000000002 -0.39131199999999999 1
-0.63315600000000005 2.7836880000000002 -0.20572499999999999 1
-0.66574 2.7836880000000002 0 1
-0.63315600000000005 2.7836880000000002 0.20572499999999999 1
-0.53859500000000005 2.7836880000000002 0.39131199999999999 1
-0.39131199999999999 2.7836880000000002 0.53859500000000005 1
-0.20572499999999999 2.7836880000000002 0.63315600000000005 1
-0 2.7836880000000002 0.66574 1
0.20572499999999999 2.7836880000000002 0.63315600000000005 1
0.39131199999999999 2.7836880000000002 0.53859500000000005 1
0.53859500000000005 2.7836880000000002 0.39131199999999999 1
0.63315600000000005 2.7836880000000002 0.20572499999999999 1
0.66574 2.7836880000000002 0 1
0.65754400000000002 2.8904960000000002 -0.21364900000000001 1
0.55933999999999995 2.8904960000000002 -0.40638400000000002 1
0.40638400000000002 2.8904960000000002 -0.55933999999999995 1
0.21364900000000001 2.8904960000000002 -0.65754400000000002 1
0 2.8904960000000002 -0.69138200000000005 1
-0.21364900000000001 2.8904960000000002 -0.65754400000000002 1
-0.40638400000000002 2.8904960000000002 -0.55933999999999995 1
-0.55933999999999995 2.8904960000000002 -0.40638400000000002 1
-0.65754299999999999 2.8904960000000002 -0.21364900000000001 1
-0.69138200000000005 2.8904960000000002 0 1
-0.65754299999999999 2.8904960000000002 0.21364900000000001 1
-0.55933999999999995 2.8904960000000002 0.40638400000000002 1
-0.40638400000000002 2.8904960000000002 0.55933999999999995 1
-0.21364900000000001 2.8904960000000002 0.65754299999999999 1
-0 2.8904960000000002 0.69138200000000005 1
0.21364900000000001 2.8904960000000002 0.65754299999999999 1
0.40638400000000002 2.8904960000000002 0.55933999999999995 1
0.55933999999999995 2.8904960000000002 0.40638400000000002 1
0.65754299999999999 2.8904960000000002 0.21364900000000001 1
0.69138200000000005 2.8904960000000002 0 1
0.66574 3 -0.216312 1
0.56631200000000004 3 -0.41144999999999998 1
0.41144999999999998 3 -0.56631200000000004 1
0.216312 3 -0.66574 1
0 3 -0.69999999999999996 1
-0.216312 3 -0.66574 1
-0.41144999999999998 3 -0.56631200000000004 1
-0.56631200000000004 3 -0.41144999999999998 1
-0.66574 3 -0.216312 1
-0.69999999999999996 3 0 1
-0.66574 3 0.216312 1
-0.56631200000000004 3 0.41144999999999998 1
-0.41144999999999998 3 0.56631200000000004 1
-0.216312 3 0.66574 1
-0 3 0.69999999999999996 1
0.216312 3 0.66574 1
0.41144999999999998 3 0.56631200000000004 1
0.56631200000000004 3 0.41144999999999998 1
0.66574 3 0.216312 1
0.69999999999999996 3 0 1
0.65754400000000002 3.1095039999999998 -0.21364900000000001 1
0.55933999999999995 3.1095039999999998 -0.40638400000000002 1
0.40638400000000002 3.1095039999999998 -0.55933999999999995 1
0.21364900000000001 3.1095039999999998 -0.65754400000000002 1
0 3.1095039999999998 -0.69138200000000005 1
-0.21364900000000001 3.1095039999999998 -0.65754400000000002 1
-0.40638400000000002 3.1095039999999998 -0.55933999999999995 1
-0.55933999999999995 3.1095039999999998 -0.40638400000000002 1
-0.65754299999999999 3.1095039999999998 -0.21364900000000001 1
-0.69138200000000005 3.1095039999999998 0 1
-0.65754299999999999 3.1095039999999998 0.21364900000000001 1
-0.55933999999999995 3.1095039999999998 0.40638400000000002 1
-0.40638400000000002 3.1095039999999998 0.55933999999999995 1
-0.21364900000000001 3.1095039999999998 0.65754299999999999 1
-0 3.1095039999999998 0.69138200000000005 1
0.21364900000000001 3.1095039999999998 0.65754299999999999 1
0.40638400000000002 3.1095039999999998 0.55933999999999995 1
0.55933999999999995 3.1095039999999998 0.40638400000000002 1
0.65754299999999999 3.1095039999999998 0.21364900000000001 1
0.69138200000000005 3.1095039999999998 0 1
0.63315600000000005 3.2163119999999998 -0.20572499999999999 1
0.53859500000000005 3.2163119999999998 -0.39131199999999999 1
0.39131199999999999 3.2163119999999998 -0.53859500000000005 1
0.20572499999999999 3.2163119999999998 -0.63315600000000005 1
0 3.2163119999999998 -0.66574 1
-0.20572499999999999 3.2163119999999998 -0.63315600000000005 1
-0.39131199999999999 3.2163119999999998 -0.53859500000000005 1
-0.53859500000000005 3.2163119999999998 -0.39131199999999999 1
-0.63315600000000005 3.2163119999999998 -0.20572499999999999 1
-0.66574 3.2163119999999998 0 1
-0.63315600000000005 3.2163119999999998 0.20572499999999999 1
-0.53859500000000005 3.2163119999999998 0.39131199999999999 1
-0.39131199999999999 3.2163119999999998 0.53859500000000005 1
-0.20572499999999999 3.2163119999999998 0.63315600000000005 1
-0 3.2163119999999998 0.66574 1
0.20572499999999999 3.2163119999999998 0.63315600000000005 1
0.39131199999999999 3.2163119999999998 0.53859500000000005 1
0.53859500000000005 3.2163119999999998 0.39131199999999999 1
0.63315600000000005 3.2163119999999998 0.20572499999999999 1
0.66574 3.2163119999999998 0 1
0.59317900000000001 3.317793 -0.19273499999999999 1
0.50458800000000004 3.317793 -0.36660500000000001 1
0.36660500000000001 3.317793 -0.50458800000000004 1
0.19273499999999999 3.317793 -0.59317900000000001 1
0 3.317793 -0.62370499999999995 1
-0.19273499999999999 3.317793 -0.59317900000000001 1
-0.36660399999999999 3.317793 -0.50458800000000004 1
-0.50458800000000004 3.317793 -0.36660399999999999 1
-0.59317799999999998 3.317793 -0.19273499999999999 1
-0.62370499999999995 3.317793 0 1
-0.59317799999999998 3.317793 0.19273499999999999 1
-0.50458800000000004 3.317793 0.36660399999999999 1
-0.36660399999999999 3.317793 0.50458800000000004 1
-0.19273499999999999 3.317793 0.59317799999999998 1
-0 3.317793 0.62370499999999995 1
0.19273499999999999 3.317793 0.59317799999999998 1
0.36660399999999999 3.317793 0.50458800000000004 1
0.50458800000000004 3.317793 0.36660399999999999 1
0.59317799999999998 3.317793 0.19273499999999999 1
0.62370499999999995 3.317793 0 1
0.53859500000000005 3.4114499999999999 -0.17499999999999999 1
0.45815600000000001 3.4114499999999999 -0.33287 1
0.33287 3.4114499999999999 -0.45815600000000001 1
0.17499999999999999 3.4114499999999999 -0.53859500000000005 1
0 3.4114499999999999 -0.56631200000000004 1
-0.17499999999999999 3.4114499999999999 -0.53859500000000005 1
-0.33287 3.4114499999999999 -0.45815600000000001 1
-0.45815600000000001 3.4114499999999999 -0.33287 1
-0.53859500000000005 3.4114499999999999 -0.17499999999999999 1
-0.56631200000000004 3.4114499999999999 0 1
-0.53859500000000005 3.4114499999999999 0.17499999999999999 1
-0.45815600000000001 3.4114499999999999 0.33287 1
-0.33287 3.4114499999999999 0.45815600000000001 1
-0.17499999999999999 3.4114499999999999 0.53859500000000005 1
-0 3.4114499999999999 0.56631200000000004 1
0.17499999999999999 3.4114499999999999 0.53859500000000005 1
0.33287 3.4114499999999999 0.45815600000000001 1
0.45815600000000001 3.4114499999999999 0.33287 1
0.53859500000000005 3.4114499999999999 0.17499999999999999 1
0.56631200000000004 3.4114499999999999 0 1
0.47074899999999997 3.4949750000000002 -0.15295600000000001 1
0.40044299999999999 3.4949750000000002 -0.290939 1
0.290939 3.4949750000000002 -0.40044299999999999 1
0.15295600000000001 3.4949750000000002 -0.47074899999999997 1
0 3.4949750000000002 -0.494975 1
-0.15295600000000001 3.4949750000000002 -0.47074899999999997 1
-0.290939 3.4949750000000002 -0.40044299999999999 1
-0.40044299999999999 3.4949750000000002 -0.290939 1
-0.47074899999999997 3.4949750000000002 -0.15295600000000001 1
-0.494975 3.4949750000000002 0 1
-0.47074899999999997 3.4949750000000002 0.15295600000000001 1
-0.40044299999999999 3.4949750000000002 0.290939 1
-0.290939 3.4949750000000002 0.40044299999999999 1
-0.15295600000000001 3.4949750000000002 0.47074899999999997 1
-0 3.4949750000000002 0.494975 1
0.15295600000000001 3.4949750000000002 0.47074899999999997 1
0.290939 3.4949750000000002 0.40044299999999999 1
0.40044299999999999 3.4949750000000002 0.290939 1
0.47074899999999997 3.4949750000000002 0.15295600000000001 1
0.494975 3.4949750000000002 0 1
0.39131199999999999 3.5663119999999999 -0.12714500000000001 1
0.33287 3.5663119999999999 -0.241844 1
0.241844 3.5663119999999999 -0.33287 1
0.12714500000000001 3.5663119999999999 -0.39131199999999999 1
0 3.5663119999999999 -0.41144999999999998 1
-0.12714500000000001 3.5663119999999999 -0.39131199999999999 1
-0.241844 3.5663119999999999 -0.33287 1
-0.33287 3.5663119999999999 -0.241844 1
-0.39131199999999999 3.5663119999999999 -0.12714500000000001 1
-0.41144999999999998 3.5663119999999999 0 1
-0.39131199999999999 3.5663119999999999 0.12714500000000001 1
-0.33287 3.5663119999999999 0.241844 1
-0.241844 3.5663119999999999 0.33287 1
-0.12714500000000001 3.5663119999999999 0.39131199999999999 1
-0 3.5663119999999999 0.41144999999999998 1
0.12714500000000001 3.5663119999999999 0.39131199999999999 1
0.241844 3.5663119999999999 0.33287 1
0.33287 3.5663119999999999 0.241844 1
0.39131199999999999 3.5663119999999999 0.12714500000000001 1
0.41144999999999998 3.5663119999999999 0 1
0.30224000000000001 3.6237050000000002 -0.098204 1
0.2571 3.6237050000000002 -0.18679399999999999 1
0.18679399999999999 3.6237050000000002 -0.2571 1
0.098204 3.6237050000000002 -0.30224000000000001 1
0 3.6237050000000002 -0.31779400000000002 1
-0.098204 3.6237050000000002 -0.30224000000000001 1
-0.18679399999999999 3.6237050000000002 -0.2571 1
-0.2571 3.6237050000000002 -0.18679399999999999 1
-0.30224000000000001 3.6237050000000002 -0.098204 1
-0.31779299999999999 3.6237050000000002 0 1
-0.30224000000000001 3.6237050000000002 0.098204 1
-0.2571 3.6237050000000002 0.18679399999999999 1
-0.18679399999999999 3.6237050000000002 0.2571 1
-0.098204 3.6237050000000002 0.30224000000000001 1
-0 3.6237050000000002 0.31779299999999999 1
0.098204 3.6237050000000002 0.30223899999999998 1
0.18679399999999999 3.6237050000000002 0.2571 1
0.2571 3.6237050000000002 0.18679399999999999 1
0.30223899999999998 3.6237050000000002 0.098204 1
0.31779299999999999 3.6237050000000002 0 1
0.20572499999999999 3.66574 -0.066844000000000001 1
0.17499999999999999 3.66574 -0.12714500000000001 1
0.12714500000000001 3.66574 -0.17499999999999999 1
0.066844000000000001 3.66574 -0.20572499999999999 1
0 3.66574 -0.216312 1
-0.066844000000000001 3.66574 -0.20572499999999999 1
-0.12714500000000001 3.66574 -0.17499999999999999 1
-0.17499999999999999 3.66574 -0.12714500000000001 1
-0.20572499999999999 3.66574 -0.066844000000000001 1
-0.216312 3.66574 0 1
-0.20572499999999999 3.66574 0.066844000000000001 1
-0.17499999999999999 3.66574 0.12714500000000001 1
-0.12714500000000001 3.66574 0.17499999999999999 1
-0.066844000000000001 3.66574 0.20572499999999999 1
-0 3.66574 0.216312 1
0.066844000000000001 3.66574 0.20572499999999999 1
0.12714500000000001 3.66574 0.17499999999999999 1
0.17499999999999999 3.66574 0.12714500000000001 1
0.20572499999999999 3.66574 0.066844000000000001 1
0.216312 3.66574 0 1
0.104145 3.6913819999999999 -0.033839000000000001 1
0.088591000000000003 3.6913819999999999 -0.064365000000000006 1
0.064365000000000006 3.6913819999999999 -0.088591000000000003 1
0.033839000000000001 3.6913819999999999 -0.104145 1
0 3.6913819999999999 -0.109504 1
-0.033839000000000001 3.6913819999999999 -0.104145 1
-0.064365000000000006 3.6913819999999999 -0.088591000000000003 1
-0.088591000000000003 3.6913819999999999 -0.064365000000000006 1
-0.104145 3.6913819999999999 -0.033839000000000001 1
-0.109504 3.6913819999999999 0 1
-0.104145 3.6913819999999999 0.033839000000000001 1
-0.088591000000000003 3.6913819999999999 0.064365000000000006 1
-0.064365000000000006 3.6913819999999999 0.088591000000000003 1
-0.033839000000000001 3.6913819999999999 0.104145 1
-0 3.6913819999999999 0.109504 1
0.033839000000000001 3.6913819999999999 0.104145 1
0.064365000000000006 3.6913819999999999 0.088591000000000003 1
0.088591000000000003 3.6913819999999999 0.064365000000000006 1
0.104145 3.6913819999999999 0.033839000000000001 1
0.109504 3.6913819999999999 0 1
0 2.2999999999999998 0 1
0 3.7000000000000002 0 1
Triangles
760
1 2 21 1
21 2 22 1
2 3 22 1
22 3 23 1
3 4 23 1
23 4 24 1
4 5 24 1
24 5 25 1
5 6 25 1
25 6 26 1
6 7 26 1
26 7 27 1
7 8 27 1
27 8 28 1
8 9 28 1
28 9 29 1
9 10 29 1
29 10 30 1
10 11 30 1
30 11 31 1
11 12 31 1
31 12 32 1
12 13 32 1
32 13 33 1
13 14 33 1
33 14 34 1
14 15 34 1
34 15 35 1
15 16 35 1
35 16 36 1
16 17 36 1
36 17 37 1
17 18 37 1
37 18 38 1
18 19 38 1
38 19 39 1
19 20 39 1
39 20 40 1
20 1 40 1
40 1 21 1
21 22 41 1
41 22 42 1
22 23 42 1
42 23 43 1
23 24 43 1
43 24 44 1
24 25 44 1
44 25 45 1
25 26 45 1
45 26 46 1
26 27 46 1
46 27 47 1
27 28 47 1
47 28 48 1
28 29 48 1
48 29 49 1
29 30 49 1
49 30 50 1
30 31 50 1
50 31 51 1
31 32 51 1
51 32 52 1
32 33 52 1
52 33 53 1
33 34 53 1
53 34 54 1
34 35 54 1
54 35 55 1
35 36 55 1
55 36 56 1
36 37 56 1
56 37 57 1
37 38 57 1
57 38 58 1
38 39 58 1
58 39 59 1
39 40 59 1
59 40 60 1
40 21 60 1
60 21 41 1
41 42 61 1
61 42 62 1
42 43 62 1
62 43 63 1
43 44 63 1
63 44 64 1
44 45 64 1
64 45 65 1
45 46 65 1
65 46 66 1
46 47 66 1
66 47 67 1
47 48 67 1
67 48 68 1
48 49 68 1
68 49 69 1
49 50 69 1
69 50 70 1
50 51 70 1
70 51 71 1
51 52 71 1
71 52 72 1
52 53 72 1
72 53 73 1
53 54 73 1
73 54 74 1
54 55 74 1
74 55 75 1
55 56 75 1
75 56 76 1
56 57 76 1
76 57 77 1
57 58 77 1
77 58 78 1
58 59 78 1
78 59 79 1
59 60 79 1
79 60 80 1
60 41 80 1
80 41 61 1
61 62 81 1
81 62 82 1
62 63 82 1
82 63 83 1
63 64 83 1
83 64 84 1
64 65 84 1
84 65 85 1
65 66 85 1
85 66 86 1
66 67 86 1
86 67 87 1
67 68 87 1
87 68 88 1
68 69 88 1
88 69 89 1
69 70 89 1
89 70 90 1
70 71 90 1
90 71 91 1
71 72 91 1
91 72 92 1
72 73 92 1
92 73 93 1
73 74 93 1
93 74 94 1
74 75 94 1
94 75 95 1
75 76 95 1
95 76 96 1
76 77 96 1
96 77 97 1
77 78 97 1
97 78 98 1
78 79 98 1
98 79 99 1
79 80 99 1
99 80 100 1
80 61 100 1
100 61 81 1
81 82 101 1
101 82 102 1
82 83 102 1
102 83 103 1
83 84 103 1
103 84 104 1
84 85 104 1
104 85 105 1
85 86 105 1
105 86 106 1
86 87 106 1
106 87 107 1
87 88 107 1
107 88 108 1
88 89 108 1
108 89 109 1
89 90 109 1
109 90 110 1
90 91 110 1
110 91 111 1
91 92 111 1
111 92 112 1
92 93 112 1
112 93 113 1
93 94 113 1
113 94 114 1
94 95 114 1
114 95 115 1
95 96 115 1
115 96 116 1
96 97 116 1
116 97 117 1
97 98 117 1
117 98 118 1
98 99 118 1
118 99 119 1
99 100 119 1
119 100 120 1
100 81 120 1
120 81 101 1
101 102 121 1
121 102 122 1
102 103 122 1
122 103 123 1
103 104 123 1
123 104 124 1
104 105 124 1
124 105 125 1
105 106 125 1
125 106 126 1
106 107 126 1
126 107 127 1
107 108 127 1
127 108 128 1
108 109 128 1
128 109 129 1
109 110 129 1
129 110 130 1
110 111 130 1
130 111 131 1
111 112 131 1
131 112 132 1
112 113 132 1
132 113 133 1
113 114 133 1
133 114 134 1
114 115 134 1
134 115 135 1
115 116 135 1
135 116 136 1
116 117 136 1
136 117 137 1
117 118 137 1
137 118 138 1
118 119 138 1
138 119 139 1
119 120 139 1
139 120 140 1
120 101 140 1
140 101 121 1
121 122 141 1
141 122 142 1
122 123 142 1
142 123 143 1
123 124 143 1
143 124 144 1
124 125 144 1
144 125 145 1
125 126 145 1
145 126 146 1
126 127 146 1
146 127 147 1
127 128 147 1
147 128 148 1
128 129 148 1
148 129 149 1
129 130 149 1
149 130 150 1
130 131 150 1
150 131 151 1
131 132 151 1
151 132 152 1
132 133 152 1
152 133 153 1
133 134 153 1
153 134 154 1
134 135 154 1
154 135 155 1
135 136 155 1
155 136 156 1
136 137 156 1
156 137 157 1
137 138 157 1
157 138 158 1
138 139 158 1
158 139 159 1
139 140 159 1
159 140 160 1
140 121 160 1
160 121 141 1
141 142 161 1
161 142 162 1
142 143 162 1
162 143 163 1
143 144 163 1
163 144 164 1
144 145 164 1
164 145 165 1
145 146 165 1
165 146 166 1
146 147 166 1
166 147 167 1
147 148 167 1
167 148 168 1
148 149 168 1
168 149 169 1
149 150 169 1
169 150 170 1
150 151 170 1
170 151 171 1
151 152 171 1
171 152 172 1
152 153 172 1
172 153 173 1
153 154 173 1
173 154 174 1
154 155 174 1
174 155 175 1
155 156 175 1
175 156 176 1
156 157 176 1
176 157 177 1
157 158 177 1
177 158 178 1
158 159 178 1
178 159 179 1
159 160 179 1
179 160 180 1
160 141 180 1
180 141 161 1
161 162 181 1
181 162 182 1
162 163 182 1
182 163 183 1
163 164 183 1
183 164 184 1
164 165 184 1
184 165 185 1
165 166 185 1
185 166 186 1
166 167 186 1
186 167 187 1
167 168 187 1
187 168 188 1
168 169 188 1
188 169 189 1
169 170 189 1
189 170 190 1
170 171 190 1
190 171 191 1
171 172 191 1
191 172 192 1
172 173 192 1
192 173 193 1
173 174 193 1
193 174 194 1
174 175 194 1
194 175 195 1
175 176 195 1
195 176 196 1
176 177 196 1
196 177 197 1
177 178 197 1
197 178 198 1
178 179 198 1
198 179 199 1
179 180 199 1
199 180 200 1
180 161 200 1
200 161 181 1
181 182 201 1
201 182 202 1
182 183 202 1
202 183 203 1
183 184 203 1
203 184 204 1
184 185 204 1
204 185 205 1
185 186 205 1
205 186 206 1
186 187 206 1
206 187 207 1
187 188 207 1
207 188 208 1
188 189 208 1
208 189 209 1
189 190 209 1
209 190 210 1
190 191 210 1
210 191 211 1
191 192 211 1
211 192 212 1
192 193 212 1
212 193 213 1
193 194 213 1
213 194 214 1
194 195 214 1
214 195 215 1
195 196 215 1
215 196 216 1
196 197 216 1
216 197 217 1
197 198 217 1
217 198 218 1
198 199 218 1
218 199 219 1
199 200 219 1
219 200 220 1
200 181 220 1
220 181 201 1
201 202 221 1
221 202 222 1
202 203 222 1
222 203 223 1
203 204 223 1
223 204 224 1
204 205 224 1
224 205 225 1
205 206 225 1
225 206 226 1
206 207 226 1
226 207 227 1
207 208 227 1
227 208 228 1
208 209 228 1
228 209 229 1
209 210 229 1
229 210 230 1
210 211 230 1
230 211 231 1
211 212 231 1
231 212 232 1
212 213 232 1
232 213 233 1
213 214 233 1
233 214 234 1
214 215 234 1
234 215 235 1
215 216 235 1
235 216 236 1
216 217 236 1
236 217 237 1
217 218 237 1
237 218 238 1
218 219 238 1
238 219 239 1
219 220 239 1
239 220 240 1
220 201 240 1
240 201 221 1
221 222 241 1
241 222 242 1
222 223 242 1
242 223 243 1
223 224 243 1
243 224 244 1
224 225 244 1
244 225 245 1
225 226 245 1
245 226 246 1
226 227 246 1
246 227 247 1
227 228 247 1
247 228 248 1
228 229 248 1
248 229 249 1
229 230 249 1
249 230 250 1
230 231 250 1
250 231 251 1
231 232 251 1
251 232 252 1
232 233 252 1
252 233 253 1
233 234 253 1
253 234 254 1
234 235 254 1
254 235 255 1
235 236 255 1
255 236 256 1
236 237 256 1
256 237 257 1
237 238 257 1
257 238 258 1
238 239 258 1
258 239 259 1
239 240 259 1
259 240 260 1
240 221 260 1
260 221 241 1
241 242 261 1
261 242 262 1
242 243 262 1
262 243 263 1
243 244 263 1
263 244 264 1
244 245 264 1
264 245 265 1
245 246 265 1
265 246 266 1
246 247 266 1
266 247 267 1
247 248 267 1
267 248 268 1
248 249 268 1
268 249 269 1
249 250 269 1
269 250 270 1
250 251 270 1
270 251 271 1
251 252 271 1
271 252 272 1
252 253 272 1
272 253 273 1
253 254 273 1
273 254 274 1
254 255 274 1
274 255 275 1
255 256 275 1
275 256 276 1
256 257 276 1
276 257 277 1
257 258 277 1
277 258 278 1
258 259 278 1
278 259 279 1
259 260 279 1
279 260 280 1
260 241 280 1
280 241 261 1
261 262 281 1
281 262 282 1
262 263 282 1
282 263 283 1
263 264 283 1
283 264 284 1
264 265 284 1
284 265 285 1
265 266 285 1
285 266 286 1
266 267 286 1
286 267 287 1
267 268 287 1
287 268 288 1
268 269 288 1
288 269 289 1
269 270 289 1
289 270 290 1
270 271 290 1
290 271 291 1
271 272 291 1
291 272 292 1
272 273 292 1
292 273 293 1
273 274 293 1
293 274 294 1
274 275 294 1
294 275 295 1
275 276 295 1
295 276 296 1
276 277 296 1
296 277 297 1
277 278 297 1
297 278 298 1
278 279 298 1
298 279 299 1
279 280 299 1
299 280 300 1
280 261 300 1
300 261 281 1
281 282 301 1
301 282 302 1
282 283 302 1
302 283 303 1
283 284 303 1
303 284 304 1
284 285 304 1
304 285 305 1
285 286 305 1
305 286 306 1
286 287 306 1
306 287 307 1
287 288 307 1
307 288 308 1
288 289 308 1
308 289 309 1
289 290 309 1
309 290 310 1
290 291 310 1
310 291 311 1
291 292 311 1
311 292 312 1
292 293 312 1
312 293 313 1
293 294 313 1
313 294 314 1
294 295 314 1
314 295 315 1
295 296 315 1
315 296 316 1
296 297 316 1
316 297 317 1
297 298 317 1
317 298 318 1
298 299 318 1
318 299 319 1
299 300 319 1
319 300 320 1
300 281 320 1
320 281 301 1
301 302 321 1
321 302 322 1
302 303 322 1
322 303 323 1
303 304 323 1
323 304 324 1
304 305 324 1
324 305 325 1
305 306 325 1
325 306 326 1
306 307 326 1
326 307 327 1
307 308 327 1
327 308 328 1
308 309 328 1
328 309 329 1
309 310 329 1
329 310 330 1
310 311 330 1
330 311 331 1
311 312 331 1
331 312 332 1
312 313 332 1
332 313 333 1
313 314 333 1
333 314 334 1
314 315 334 1
334 315 335 1
315 316 335 1
335 316 336 1
316 317 336 1
336 317 337 1
317 318 337 1
337 318 338 1
318 319 338 1
338 319 339 1
319 320 339 1
339 320 340 1
320 301 340 1
340 301 321 1
321 322 341 1
341 322 342 1
322 323 342 1
342 323 343 1
323 324 343 1
343 324 344 1
324 325 344 1
344 325 345 1
325 326 345 1
345 326 346 1
326 327 346 1
346 327 347 1
327 328 347 1
347 328 348 1
328 329 348 1
348 329 349 1
329 330 349 1
349 330 350 1
330 331 350 1
350 331 351 1
331 332 351 1
351 332 352 1
332 333 352 1
352 333 353 1
333 334 353 1
353 334 354 1
334 335 354 1
354 335 355 1
335 336 355 1
355 336 356 1
336 337 356 1
356 337 357 1
337 338 357 1
357 338 358 1
338 339 358 1
358 339 359 1
339 340 359 1
359 340 360 1
340 321 360 1
360 321 341 1
341 342 361 1
361 342 362 1
342 343 362 1
362 343 363 1
343 344 363 1
363 344 364 1
344 345 364 1
364 345 365 1
345 346 365 1
365 346 366 1
346 347 366 1
366 347 367 1
347 348 367 1
367 348 368 1
348 349 368 1
368 349 369 1
349 350 369 1
369 350 370 1
350 351 370 1
370 351 371 1
351 352 371 1
371 352 372 1
352 353 372 1
372 353 373 1
353 354 373 1
373 354 374 1
354 355 374 1
374 355 375 1
355 356 375 1
375 356 376 1
356 357 376 1
376 357 377 1
357 358 377 1
377 358 378 1
358 359 378 1
378 359 379 1
359 360 379 1
379 360 380 1
360 341 380 1
380 341 361 1
2 1 381 1
3 2 381 1
4 3 381 1
5 4 381 1
6 5 381 1
7 6 381 1
8 7 381 1
9 8 381 1
10 9 381 1
11 10 381 1
12 11 381 1
13 12 381 1
14 13 381 1
15 14 381 1
16 15 381 1
17 16 381 1
18 17 381 1
19 18 381 1
20 19 381 1
1 20 381 1
361 362 382 1
362 363 382 1
363 364 382 1
364 365 382 1
365 366 382 1
366 367 382 1
367 368 382 1
368 369 382 1
369 370 382 1
370 371 382 1
371 372 382 1
372 373 382 1
373 374 382 1
374 375 382 1
375 376 382 1
376 377 382 1
377 378 382 1
378 379 382 1
379 380 382 1
380 361 382 1
Tetrahedra
1073
168 129 148 128 1
217 176 197 216 1
309 349 330 350 1
209 249 229 210 1
316 357 317 377 1
268 309 288 289 1
68 108 88 69 1
126 146 127 226 1
222 242 243 202 1
251 310 270 311 1
169 129 210 170 1
250 249 210 230 1
7 68 28 8 1
382 361 380 362 1
317 357 358 378 1
69 29 8 9 1
251 232 212 252 1
232 253 212 252 1
69 71 70 10 1
114 74 134 115 1
249 228 209 229 1
167 187 207 186 1
92 72 113 93 1
32 73 52 53 1
68 69 28 8 1
131 132 212 172 1
110 91 71 111 1
108 88 69 89 1
79 78 98 118 1
91 112 71 111 1
217 258 257 237 1
110 131 71 70 1
31 71 11 10 1
121 61 102 101 1
267 287 288 308 1
66 126 127 125 1
214 213 173 193 1
72 73 113 93 1
131 110 71 111 1
69 29 28 8 1
74 75 134 115 1
247 267 268 308 1
58 59 38 79 1
213 172 173 193 1
75 134 135 136 1
54 34 74 55 1
248 207 227 247 1
95 75 74 115 1
76 97 117 96 1
109 108 69 89 1
58 57 78 37 1
128 248 208 249 1
91 112 92 71 1
233 253 213 212 1
253 233 232 212 1
272 313 273 252 1
191 211 192 171 1
197 176 196 216 1
168 129 128 208 1
273 314 274 254 1
345 326 306 346 1
349 309 328 348 1
126 106 66 127 1
178 139 138 218 1
78 77 98 118 1
309 349 369 368 1
382 372 371 370 1
309 289 269 270 1
248 127 247 249 1
169 190 209 189 1
313 251 254 253 1
273 313 254 253 1
70 69 30 50 1
68 69 48 28 1
153 134 174 154 1
306 347 307 367 1
116 76 117 96 1
139 259 219 220 1
68 108 69 129 1
26 46 66 25 1
18 78 38 79 1
78 58 38 79 1
77 137 117 138 1
251 231 211 232 1
308 309 249 370 1
179 139 159 158 1
69 48 29 49 1
190 169 210 170 1
207 166 186 206 1
112 131 71 111 1
349 309 329 328 1
147 146 167 127 1
69 110 90 70 1
89 69 110 90 1
314 294 273 274 1
168 148 127 128 1
108 68 88 67 1
267 247 307 308 1
107 108 67 128 1
71 70 30 50 1
380 365 362 302 1
168 147 167 127 1
48 69 29 28 1
73 32 52 72 1
69 29 9 10 1
187 167 207 208 1
67 107 66 87 1
64 44 24 25 1
107 67 66 127 1
32 33 73 53 1
107 86 66 87 1
19 18 79 20 1
47 68 48 27 1
48 68 28 27 1
68 47 67 27 1
68 7 28 27 1
68 67 7 27 1
103 62 82 102 1
108 107 67 87 1
88 108 67 87 1
65 64 25 45 1
251 210 231 230 1
139 180 159 160 1
46 47 26 66 1
79 139 119 120 1
47 67 27 66 1
47 27 26 66 1
107 86 106 66 1
204 205 184 164 1
303 304 244 63 1
7 6 26 66 1
67 7 27 66 1
27 7 26 66 1
68 108 129 128 1
67 129 127 128 1
84 64 103 104 1
127 168 128 208 1
149 169 129 148 1
169 168 129 148 1
147 168 148 127 1
146 166 167 207 1
108 109 69 129 1
107 67 127 128 1
112 92 71 72 1
131 69 71 70 1
66 67 129 127 1
106 107 66 127 1
249 229 210 230 1
110 131 70 130 1
31 71 51 52 1
13 12 33 73 1
7 68 8 129 1
67 68 129 128 1
67 68 7 129 1
207 228 248 227 1
370 251 312 311 1
108 68 67 128 1
254 214 233 213 1
146 207 226 206 1
146 167 127 207 1
287 267 286 306 1
131 251 210 211 1
263 303 244 243 1
146 166 207 206 1
207 227 247 226 1
228 207 248 208 1
127 128 248 208 1
167 127 207 208 1
188 168 208 209 1
365 363 362 302 1
166 167 207 186 1
309 308 368 370 1
167 168 127 208 1
207 127 248 208 1
168 167 188 208 1
167 187 188 208 1
127 207 248 247 1
332 331 351 311 1
228 208 249 209 1
303 263 242 243 1
306 326 327 346 1
126 127 247 226 1
223 222 243 202 1
127 207 247 226 1
127 146 207 226 1
179 219 199 200 1
247 126 226 246 1
372 251 373 312 1
168 169 129 209 1
268 267 288 308 1
307 347 368 367 1
267 266 286 306 1
287 267 307 308 1
259 239 220 240 1
309 268 288 308 1
267 247 266 306 1
247 246 266 306 1
177 178 218 198 1
306 365 304 305 1
137 178 138 218 1
210 251 231 211 1
268 309 289 269 1
268 309 269 249 1
168 129 208 209 1
248 247 268 308 1
306 366 346 367 1
309 268 308 249 1
287 267 306 307 1
347 306 307 327 1
347 307 368 348 1
267 247 306 307 1
347 306 327 346 1
268 248 308 249 1
347 306 346 367 1
169 168 188 209 1
307 347 327 348 1
211 251 232 212 1
332 353 312 352 1
307 308 368 348 1
309 308 328 348 1
307 327 328 348 1
249 250 310 270 1
308 309 368 348 1
251 312 272 252 1
304 303 263 283 1
382 369 368 370 1
309 349 368 348 1
308 307 328 348 1
69 29 30 50 1
248 228 208 249 1
353 333 332 312 1
208 129 249 209 1
188 169 209 189 1
340 341 321 301 1
256 378 259 380 1
368 308 249 370 1
129 128 208 249 1
248 247 308 249 1
353 373 313 312 1
129 127 128 249 1
128 127 248 249 1
134 75 135 115 1
247 307 308 249 1
308 307 368 249 1
368 307 367 249 1
247 306 307 249 1
249 256 259 380 1
366 306 346 365 1
256 276 316 275 1
249 251 250 210 1
129 249 209 210 1
129 251 249 210 1
190 169 209 210 1
131 251 129 210 1
169 129 209 210 1
251 250 210 230 1
253 254 233 213 1
309 269 249 270 1
312 251 272 311 1
250 251 310 270 1
369 309 368 370 1
179 139 178 219 1
256 375 377 378 1
178 137 177 218 1
179 180 220 200 1
139 180 179 159 1
349 309 369 370 1
354 334 314 335 1
331 330 351 311 1
349 309 370 350 1
333 353 313 312 1
372 382 373 370 1
251 372 373 370 1
213 132 133 173 1
139 158 178 138 1
132 112 131 72 1
314 295 275 315 1
251 372 370 312 1
373 251 313 312 1
353 373 312 352 1
251 131 254 253 1
373 372 312 352 1
313 293 272 273 1
293 313 314 273 1
353 354 333 314 1
309 349 329 330 1
236 256 216 215 1
313 314 273 254 1
309 249 310 270 1
317 256 375 377 1
273 313 253 252 1
291 270 311 271 1
290 309 310 270 1
289 309 290 270 1
313 292 312 272 1
353 333 313 314 1
330 309 350 310 1
251 249 250 310 1
293 292 313 272 1
270 251 311 271 1
309 370 350 310 1
132 213 212 172 1
354 334 333 314 1
251 272 311 271 1
272 291 311 271 1
293 314 294 273 1
312 332 352 311 1
352 332 351 311 1
351 330 350 311 1
350 330 310 311 1
370 371 351 311 1
371 372 351 311 1
309 370 310 311 1
290 291 270 311 1
310 290 270 311 1
292 312 272 311 1
291 292 272 311 1
372 352 351 311 1
372 312 352 311 1
370 350 310 311 1
370 351 350 311 1
372 370 312 311 1
372 371 370 311 1
249 309 310 311 1
251 249 310 311 1
249 251 370 311 1
309 249 370 311 1
373 353 313 314 1
373 354 353 314 1
373 374 354 314 1
345 325 304 305 1
135 75 136 115 1
71 31 11 12 1
32 71 52 72 1
251 373 313 254 1
375 382 377 378 1
154 134 175 155 1
214 234 254 233 1
303 304 263 244 1
133 132 153 173 1
59 39 38 79 1
175 136 156 155 1
251 131 129 254 1
153 133 173 134 1
91 110 71 90 1
132 213 172 173 1
176 175 136 156 1
175 135 136 155 1
251 129 249 254 1
12 32 33 73 1
131 251 211 212 1
253 132 213 212 1
312 313 272 252 1
313 251 253 252 1
251 313 312 252 1
253 132 212 252 1
131 251 212 252 1
132 131 212 252 1
131 132 253 252 1
251 131 253 252 1
253 254 213 133 1
132 253 213 133 1
131 254 253 133 1
132 131 253 133 1
150 131 130 170 1
134 174 154 175 1
163 143 122 123 1
131 132 172 152 1
172 132 173 152 1
132 153 173 152 1
29 69 49 50 1
213 172 193 192 1
213 212 172 192 1
109 69 129 110 1
69 109 89 110 1
131 71 10 72 1
112 132 133 72 1
12 32 73 72 1
110 71 90 70 1
129 150 130 170 1
169 149 129 170 1
191 190 211 171 1
124 64 103 63 1
243 244 123 63 1
77 117 118 138 1
69 131 129 70 1
69 129 110 70 1
129 110 70 130 1
212 172 192 171 1
211 212 192 171 1
211 131 212 171 1
212 131 172 171 1
172 131 152 171 1
152 131 151 171 1
131 129 70 130 1
31 71 30 50 1
31 71 50 51 1
31 71 32 12 1
129 149 150 170 1
190 210 211 170 1
190 211 171 170 1
131 150 151 170 1
131 151 171 170 1
131 129 130 170 1
129 131 210 170 1
210 131 211 170 1
211 131 171 170 1
71 31 30 10 1
214 195 194 174 1
71 32 12 72 1
132 131 133 72 1
71 12 10 72 1
131 112 71 72 1
73 133 72 113 1
29 69 30 10 1
69 70 30 10 1
70 71 30 10 1
244 304 64 63 1
71 31 32 52 1
112 92 72 113 1
133 112 72 113 1
113 114 74 134 1
11 71 12 10 1
8 69 9 10 1
131 69 129 10 1
69 131 71 10 1
79 99 100 120 1
304 259 64 63 1
68 8 129 10 1
69 68 129 10 1
68 69 8 10 1
23 2 22 63 1
314 294 274 275 1
97 77 76 117 1
114 94 74 115 1
254 214 213 134 1
354 314 355 335 1
173 153 134 174 1
12 131 10 72 1
54 34 53 74 1
94 113 114 74 1
94 95 74 115 1
135 134 175 136 1
34 15 14 74 1
34 14 13 74 1
33 73 53 74 1
34 33 53 74 1
73 113 93 74 1
93 113 94 74 1
14 15 13 74 1
13 15 73 74 1
34 13 33 74 1
33 13 73 74 1
214 173 134 174 1
173 214 193 174 1
193 214 194 174 1
259 243 123 63 1
213 214 173 134 1
254 213 133 134 1
133 213 173 134 1
95 75 115 76 1
73 113 74 134 1
73 133 113 134 1
136 116 76 117 1
131 254 133 134 1
77 137 136 117 1
15 73 74 134 1
133 73 72 134 1
131 133 72 134 1
134 135 175 155 1
131 129 254 134 1
15 13 73 134 1
12 131 72 134 1
73 12 72 134 1
13 15 10 134 1
13 12 73 134 1
12 13 10 134 1
131 12 10 134 1
77 78 37 17 1
137 136 157 177 1
19 18 39 79 1
257 258 256 318 1
17 15 18 381 1
74 15 134 136 1
75 74 134 136 1
4 64 5 3 1
136 217 257 256 1
137 218 258 217 1
15 13 10 381 1
39 18 38 79 1
77 97 98 118 1
76 77 37 17 1
15 77 136 76 1
136 116 115 76 1
75 136 115 76 1
75 15 74 76 1
74 15 136 76 1
75 74 136 76 1
77 136 76 117 1
115 95 76 96 1
116 115 76 96 1
137 136 177 217 1
57 77 78 37 1
136 176 157 177 1
19 18 20 381 1
56 76 36 55 1
319 278 318 259 1
15 16 76 36 1
78 58 37 38 1
158 137 157 178 1
137 157 178 177 1
139 79 119 118 1
139 78 118 138 1
177 218 217 197 1
139 78 79 118 1
176 177 217 197 1
136 176 217 216 1
76 36 55 35 1
75 76 55 35 1
74 75 55 35 1
34 74 55 35 1
75 15 76 35 1
76 15 36 35 1
15 75 74 35 1
34 15 74 35 1
76 77 57 37 1
76 56 36 37 1
56 76 57 37 1
77 15 136 17 1
16 15 76 17 1
15 77 76 17 1
16 76 36 17 1
36 76 37 17 1
136 176 156 157 1
39 19 79 20 1
335 316 356 336 1
202 162 181 161 1
78 17 18 38 1
78 37 17 38 1
279 278 319 259 1
158 137 178 138 1
77 78 17 139 1
136 77 17 139 1
99 79 119 120 1
9 8 10 381 1
218 177 198 197 1
363 362 302 342 1
17 78 18 139 1
15 17 18 139 1
15 136 17 139 1
97 77 117 118 1
178 139 218 219 1
257 256 277 317 1
136 176 177 217 1
314 295 294 275 1
179 178 198 219 1
241 302 301 262 1
5 139 62 63 1
307 367 249 365 1
139 259 123 63 1
79 99 119 118 1
99 79 98 118 1
259 239 219 220 1
179 139 158 178 1
256 237 236 216 1
198 179 219 199 1
317 337 338 358 1
136 217 256 216 1
247 306 249 365 1
316 277 297 296 1
137 177 218 217 1
218 238 258 217 1
254 255 235 215 1
363 365 303 302 1
78 77 118 138 1
77 78 139 138 1
257 217 237 256 1
137 77 136 138 1
136 77 139 138 1
319 299 280 300 1
255 256 235 215 1
175 195 216 215 1
319 278 298 318 1
314 315 355 335 1
136 137 258 257 1
176 195 196 216 1
137 136 217 257 1
258 137 217 257 1
235 256 236 215 1
277 297 298 318 1
278 277 298 318 1
238 258 217 237 1
277 316 297 317 1
217 237 256 216 1
234 254 235 215 1
136 137 138 258 1
138 137 218 258 1
315 316 355 335 1
314 274 254 275 1
258 136 257 256 1
260 241 301 280 1
276 256 316 277 1
129 134 136 256 1
129 254 134 256 1
218 139 259 219 1
129 249 254 256 1
365 259 303 302 1
278 299 319 298 1
375 316 377 376 1
357 317 377 378 1
2 381 5 3 1
316 276 277 296 1
175 176 136 216 1
195 176 175 216 1
295 316 275 315 1
234 214 254 215 1
214 195 174 215 1
174 195 175 215 1
255 254 256 215 1
136 175 216 215 1
256 136 216 215 1
254 214 134 215 1
134 174 175 215 1
134 214 174 215 1
254 134 256 215 1
134 136 256 215 1
134 175 136 215 1
249 370 375 365 1
357 316 317 337 1
317 256 377 378 1
256 257 318 317 1
256 316 277 317 1
254 314 275 315 1
255 254 275 315 1
314 254 316 315 1
256 255 275 315 1
316 256 275 315 1
254 255 256 315 1
254 256 316 315 1
316 295 275 296 1
276 316 275 296 1
257 277 318 317 1
356 316 375 376 1
284 264 304 265 1
278 299 279 319 1
262 303 282 283 1
241 260 220 221 1
257 277 278 318 1
278 258 318 259 1
318 317 358 378 1
258 257 278 318 1
259 241 260 220 1
262 303 263 242 1
277 297 318 317 1
178 218 198 219 1
382 375 377 376 1
180 139 179 220 1
316 356 377 376 1
319 359 379 378 1
316 355 335 356 1
319 318 358 378 1
316 357 356 336 1
357 316 337 336 1
317 357 337 358 1
359 319 358 378 1
318 317 338 358 1
319 318 338 358 1
318 256 317 378 1
238 218 259 219 1
339 319 338 358 1
339 359 319 358 1
316 355 356 375 1
256 316 317 375 1
316 317 375 377 1
179 139 219 220 1
316 315 355 375 1
256 254 316 375 1
220 260 240 221 1
316 314 315 375 1
315 314 355 375 1
254 314 316 375 1
382 374 373 375 1
382 373 370 375 1
357 316 356 377 1
299 279 319 280 1
374 354 314 375 1
314 354 355 375 1
373 374 314 375 1
258 256 318 259 1
313 314 254 375 1
373 313 254 375 1
313 373 314 375 1
249 254 256 375 1
251 373 254 375 1
373 251 370 375 1
249 251 254 375 1
251 249 370 375 1
239 238 259 219 1
258 136 256 259 1
226 146 206 205 1
318 256 378 259 1
260 259 220 240 1
238 218 258 259 1
139 138 218 259 1
218 138 258 259 1
136 129 256 259 1
129 136 139 259 1
139 136 138 259 1
138 136 258 259 1
365 382 380 362 1
129 249 256 259 1
359 319 379 380 1
382 364 363 365 1
318 319 259 380 1
306 345 346 365 1
368 382 370 365 1
322 343 302 342 1
319 279 259 280 1
64 84 103 83 1
343 303 323 302 1
363 382 365 362 1
326 345 306 325 1
285 304 305 265 1
370 382 375 365 1
366 382 367 365 1
249 368 370 365 1
307 306 367 365 1
306 307 249 365 1
306 366 367 365 1
367 368 249 365 1
382 368 367 365 1
301 241 262 261 1
249 259 365 380 1
256 249 375 380 1
301 281 280 261 1
183 203 162 182 1
375 249 365 380 1
378 318 259 380 1
319 318 378 380 1
205 224 245 244 1
284 304 263 283 1
382 379 378 380 1
375 382 378 380 1
256 375 378 380 1
379 319 378 380 1
241 301 280 261 1
359 360 319 380 1
382 375 365 380 1
246 266 306 265 1
343 363 302 342 1
322 343 323 302 1
259 365 380 302 1
59 39 79 60 1
343 363 303 302 1
340 360 341 301 1
341 322 321 301 1
284 304 285 265 1
266 286 306 265 1
306 286 285 265 1
360 359 319 340 1
241 302 262 242 1
223 243 203 202 1
259 303 302 242 1
345 306 325 305 1
359 339 319 340 1
365 345 304 305 1
124 224 205 244 1
306 285 305 265 1
264 304 265 244 1
264 284 304 263 1
306 345 365 305 1
124 205 245 244 1
180 139 121 140 1
259 241 302 301 1
241 259 260 301 1
319 259 380 301 1
380 259 302 301 1
360 380 341 301 1
302 322 342 301 1
342 322 341 301 1
380 361 341 301 1
362 342 341 301 1
362 302 342 301 1
361 362 341 301 1
361 380 362 301 1
362 380 302 301 1
281 301 262 261 1
303 302 262 282 1
301 281 262 282 1
302 301 262 282 1
281 301 280 300 1
319 360 340 320 1
340 360 301 320 1
280 319 300 320 1
301 280 300 320 1
360 319 380 320 1
380 319 301 320 1
360 380 301 320 1
301 260 280 320 1
259 319 280 320 1
260 259 280 320 1
259 260 301 320 1
319 259 301 320 1
303 262 263 283 1
345 325 324 304 1
345 324 344 304 1
365 345 344 304 1
247 306 365 304 1
163 143 123 144 1
344 324 323 304 1
364 365 344 304 1
343 344 323 304 1
303 343 323 304 1
363 364 344 304 1
364 363 365 304 1
365 363 303 304 1
249 247 365 304 1
304 264 263 244 1
363 343 303 304 1
343 363 344 304 1
85 64 105 65 1
86 66 85 105 1
125 124 64 105 1
64 125 105 65 1
259 365 303 304 1
244 124 123 63 1
241 259 302 242 1
259 303 242 243 1
126 226 246 205 1
265 304 245 244 1
121 120 61 101 1
124 163 123 144 1
145 144 165 125 1
126 146 226 205 1
126 146 165 125 1
205 224 225 245 1
222 221 242 202 1
226 205 225 245 1
226 246 205 245 1
306 246 265 245 1
305 306 265 245 1
304 305 265 245 1
304 306 305 245 1
201 202 181 161 1
302 303 262 242 1
247 306 304 245 1
247 246 306 245 1
203 163 122 123 1
21 40 60 61 1
259 243 122 123 1
224 223 243 203 1
124 224 244 203 1
244 224 243 203 1
162 122 142 141 1
203 202 162 182 1
203 163 183 162 1
243 203 122 123 1
221 241 242 202 1
140 139 61 80 1
143 163 122 142 1
64 139 5 63 1
203 124 163 123 1
66 85 105 65 1
163 162 122 142 1
180 220 181 161 1
64 44 25 45 1
205 126 165 125 1
124 205 165 125 1
220 201 181 161 1
64 24 4 5 1
203 163 162 122 1
121 180 140 141 1
219 179 220 200 1
242 259 243 122 1
242 243 202 122 1
243 203 202 122 1
202 203 162 122 1
139 259 122 123 1
244 124 203 123 1
243 244 203 123 1
42 22 63 43 1
23 64 63 43 1
139 180 160 140 1
202 162 182 181 1
220 180 181 200 1
205 144 165 164 1
122 162 121 141 1
106 126 66 105 1
86 106 66 105 1
180 139 220 121 1
259 139 122 121 1
162 202 122 121 1
220 241 221 121 1
124 244 64 63 1
259 241 220 121 1
139 259 220 121 1
221 241 202 121 1
241 259 242 121 1
242 259 122 121 1
241 242 202 121 1
202 242 122 121 1
180 160 140 141 1
202 162 161 141 1
202 221 121 141 1
162 202 121 141 1
180 220 161 141 1
220 180 121 141 1
221 220 121 141 1
201 202 161 141 1
201 221 202 141 1
220 201 161 141 1
201 220 221 141 1
7 6 66 5 1
64 84 105 104 1
18 15 139 20 1
205 185 184 165 1
124 205 144 165 1
205 204 144 164 1
126 146 205 165 1
5 2 3 63 1
204 203 163 184 1
163 203 183 184 1
146 145 165 125 1
224 124 205 144 1
124 224 203 144 1
124 203 163 144 1
303 259 304 63 1
224 205 204 144 1
144 124 165 125 1
224 204 203 144 1
203 204 163 144 1
184 205 165 164 1
146 166 206 165 1
146 206 205 165 1
205 186 185 165 1
204 163 144 164 1
163 204 184 164 1
166 186 206 165 1
206 186 205 165 1
205 124 245 125 1
127 126 247 125 1
246 205 245 125 1
246 126 205 125 1
66 125 64 65 1
66 126 125 105 1
247 126 246 125 1
247 246 245 125 1
84 85 64 105 1
64 124 103 104 1
124 64 105 104 1
125 66 105 65 1
65 66 25 5 1
64 65 25 5 1
2 20 381 1 1
2 23 3 63 1
127 66 125 64 1
22 62 42 63 1
123 122 62 102 1
247 127 125 64 1
24 64 25 5 1
83 103 62 82 1
124 245 125 64 1
303 244 243 63 1
123 103 62 63 1
129 127 249 64 1
24 64 4 3 1
127 247 249 64 1
249 247 304 64 1
304 247 245 64 1
245 247 125 64 1
381 4 5 3 1
245 124 244 64 1
304 245 244 64 1
18 15 20 381 1
62 121 61 102 1
22 2 62 63 1
6 7 381 5 1
2 5 62 63 1
66 65 25 45 1
46 66 25 45 1
79 39 20 40 1
259 139 64 63 1
61 81 102 101 1
40 60 61 80 1
23 64 3 63 1
139 140 120 80 1
78 139 79 20 1
18 78 79 20 1
78 18 139 20 1
64 24 23 3 1
64 5 3 63 1
79 39 40 60 1
15 14 13 381 1
13 12 10 381 1
16 15 17 381 1
12 11 10 381 1
103 83 62 63 1
139 123 62 63 1
103 64 83 63 1
64 66 65 5 1
6 26 66 5 1
66 26 25 5 1
20 2 381 5 1
259 303 243 63 1
15 20 381 5 1
10 15 381 5 1
8 10 381 5 1
7 8 381 5 1
123 124 103 63 1
67 66 129 5 1
7 67 129 5 1
67 7 66 5 1
129 66 127 5 1
127 66 64 5 1
129 127 64 5 1
8 129 10 5 1
8 7 129 5 1
15 139 20 5 1
136 129 139 5 1
249 129 64 5 1
15 136 139 5 1
134 129 136 5 1
139 129 259 5 1
139 259 64 5 1
129 249 259 5 1
259 249 365 5 1
365 249 304 5 1
304 249 64 5 1
15 10 134 5 1
15 134 136 5 1
131 129 134 5 1
129 131 10 5 1
10 131 134 5 1
259 365 304 5 1
259 304 64 5 1
79 20 61 80 1
81 82 61 102 1
139 79 61 80 1
120 140 61 80 1
20 40 61 80 1
40 79 60 80 1
122 139 123 62 1
139 122 121 62 1
41 21 60 61 1
120 81 61 101 1
100 79 120 80 1
100 120 61 80 1
24 64 23 43 1
20 79 40 80 1
103 123 62 102 1
82 62 61 102 1
122 121 62 102 1
20 2 5 62 1
22 23 63 43 1
21 41 42 61 1
44 64 24 43 1
139 20 5 62 1
81 100 120 61 1
22 21 42 61 1
62 22 42 61 1
20 40 21 61 1
2 22 62 61 1
22 2 21 61 1
1 20 21 61 1
139 20 62 61 1
139 79 20 61 1
140 121 120 61 1
2 1 21 61 1
20 2 62 61 1
2 20 1 61 1
121 139 62 61 1
139 121 140 61 1
79 139 120 80 1
